<?xml version="1.0" encoding="utf-8"?>
<!-- Generator: Adobe Illustrator 22.0.1, SVG Export Plug-In . SVG Version: 6.00 Build 0)  -->
<svg version="1.1" id="Layer_1" xmlns="http://www.w3.org/2000/svg" xmlns:xlink="http://www.w3.org/1999/xlink" x="0px" y="0px"
	 viewBox="0 0 3401.6 3401.6" style="enable-background:new 0 0 3401.6 3401.6;" xml:space="preserve">
<style type="text/css">
	.st0{fill:#E5E5E5;}
	.st1{fill:#665689;}
	.st2{fill:#E5E1E1;}
	.st3{fill:#AA415D;}
	.st4{fill:#236CB5;}
	.st5{fill:#EE2C31;}
</style>
<g>
	<path class="st0" d="M1584.8,513.5c2.6,0.6,5.2,1.5,7.9,2c0,0-0.1-0.1-1.8-0.5c-1.9-0.4-4.4-1-6.3-1.5
		C1584.7,513.5,1584.8,513.5,1584.8,513.5"/>
	<path class="st0" d="M1573.1,511c2.1,0.4,3.8,0.9,6.4,1.6c2.3,0.6,3.1,0.8,3.4,0.8c-0.3-0.2-1.5-0.7-5.5-1.6l-3.6-0.7l-1.4-0.3
		C1572.7,510.9,1572.9,511,1573.1,511"/>
	<path class="st0" d="M1567.7,510c1.1,0.3,2.1,0.9,3.1,1.2c0.6,0.1,1.5,0.4,1.8,0.2c-0.1-0.3-1.2-0.6-2.2-0.8l-0.1,0
		c-0.8-0.2-2-0.4-2.8-0.5C1567.6,510,1567.7,510,1567.7,510"/>
	<path class="st0" d="M1562.4,509c-0.7-0.1-2-0.3-2.4,0c0,0,0,0,0,0.1c0.5,0.5,3.1,0.5,4.1,0.5c0.9,0,1.2,0,1.6,0.1
		c-0.5-0.1-1.2-0.2-1.8-0.3l-1-0.2C1562.7,509.1,1562.5,509.1,1562.4,509"/>
	<path class="st0" d="M1557.3,508.2c-5-0.8-7.1-0.8-7.3-0.7c0.3,0.1,1.2,0.2,3.4,0.4c3.2,0.3,4.9,0.5,7.5,0.9l-0.3,0
		c-0.8-0.1-2-0.3-2.8-0.5C1557.6,508.2,1557.4,508.2,1557.3,508.2"/>
	<path class="st0" d="M1550.8,507.1c-5.9-0.9-9.3-1.2-10.1-1.2c0.2,0.1,0.2,0.1,2.8,0.4c5.4,0.6,7.6,0.9,11.7,1.6
		c-0.8-0.1-1.8-0.3-2.6-0.4l-1.2-0.2C1551.3,507.2,1551,507.1,1550.8,507.1"/>
	<path class="st0" d="M1541.6,505.8c-5.7-0.8-8.8-1.1-9.2-1.1c0.2,0,0.3,0.1,2.1,0.3c5.2,0.6,8.4,1,13.5,1.8l-0.6-0.1
		c-1.4-0.2-3.3-0.5-4.7-0.7C1542.4,505.9,1542,505.8,1541.6,505.8"/>
	<path class="st0" d="M1527.9,504c-0.7-0.1-1.4-0.2-2-0.2c3.1,0.4,6.2,0.7,9.3,1.1c-1.8-0.2-4.1-0.5-5.9-0.7
		C1528.8,504.1,1528.3,504,1527.9,504"/>
	<path class="st0" d="M1665.3,536.4c1,0.4,1,0.4,33.4,13.2c-0.4-0.2-0.5-0.3-2.2-1l-35.1-13.6l-5.3-1.8
		C1661.2,534.9,1663.6,535.8,1665.3,536.4"/>
	<path class="st0" d="M1656.9,534.1c11,4.1,21.5,9.3,32.7,12.8c-0.9-0.9-17.3-8.3-42-16.5c-3.7-1.1-8.6-2.7-12.3-3.8
		C1645.9,530.1,1654.2,533.1,1656.9,534.1"/>
	<path class="st0" d="M1643.8,531.1c5.5,2.2,11,4.4,15.8,6.4c8.9,3.7,13.3,5.5,15,5.7c-1.5-1.8-21.6-11.2-51.9-20.2l-6.3-1.7
		C1623.1,523.5,1630.8,525.9,1643.8,531.1"/>
	<path class="st0" d="M1626.5,527.4c25.5,11.3,25.5,11.3,27.4,11.2c0-0.1,0-0.3,0-0.4c-4.9-5-34.7-16.1-47.9-19.2
		C1612.4,522.6,1619.7,524.4,1626.5,527.4"/>
	<path class="st0" d="M1605.3,523.1c23.3,13.4,23.3,9.7,23.3,9.5c-0.2-3.3-23.1-13.5-34.5-16.1c-0.1,0-0.2,0-0.3-0.1
		c0,0.1,0,0.1,0,0.2C1597.5,519,1601.5,520.9,1605.3,523.1"/>
	<path class="st0" d="M1581.6,518.5c6.7,7.8,18.3,10.9,18.3,7.2c0.1-3.9-13.4-10.6-19.6-11.9c-1-0.2-2.6-0.4,0.2,3.5
		C1580.8,517.6,1581.2,518.1,1581.6,518.5"/>
	<path class="st0" d="M1557.7,514.1c-2.7,4.2,4.9,8.3,10.8,6.9c5.5-1.2,5-5.9,0.7-8.7c-1.4-0.9-2.4-1.1-3-1.2
		C1562.5,510.6,1558.9,512.2,1557.7,514.1"/>
	<path class="st0" d="M1534.6,510c-4.7,1.4-6.5,3.4-4.2,4.8c6.6,3.8,23-3.6,22.9-5.6c0-0.3-0.6-0.4-1-0.5
		C1548.8,508.1,1540.5,508.3,1534.6,510"/>
	<path class="st0" d="M1513.3,506.4c-8.3,0.9-12.3,2.5-11.4,3.5c2.7,3,36.2-2.8,37.8-3.3c-0.1-0.1-0.3-0.1-0.4-0.2
		C1536,506,1523.9,505.3,1513.3,506.4"/>
	<path class="st0" d="M1494.5,503.5c-7.9,0.3-16.9,1.1-18,2.4c0.5,0.4,1,0.8,7.6,0.7c1.7,0,43.5-1.9,43.7-1.9
		c-0.1,0-0.1-0.1-0.2-0.1C1525.5,504.3,1510.5,502.9,1494.5,503.5"/>
	<path class="st0" d="M1479.1,501.3c-10.9,0-20.9,0.7-23.8,1.5c0.5,0.5,0.5,0.5,3.6,0.5c0.5,0,1.1,0,1.6,0c12.2,0,24.4-0.8,36.6-0.7
		c9.2,0,15.3,0.4,19.4,0.6c1.2,0.1,1.2,0.1,1.3,0C1517.7,503.1,1500,501.2,1479.1,501.3"/>
	<path class="st0" d="M1468.1,500c-14.7-0.2-26.3,0.4-29.1,0.9c1,0.2,1.1,0.2,10.8,0.1c7.7-0.2,17.3-0.4,28.1-0.2
		c9.7,0.1,9.7,0.1,32.5,1.5C1508.4,502,1489.9,500.2,1468.1,500"/>
	<path class="st0" d="M1431.5,500.2c9.6-0.3,18.7-0.5,31.9-0.4l-32.5,0.5C1431,500.2,1431.3,500.2,1431.5,500.2"/>
	<path class="st0" d="M1749.5,574.3c14.9,8.1,27,15.5,30.9,17.9l-29.1-17l-28.9-14.8C1727,562.5,1736.4,567.1,1749.5,574.3"/>
	<path class="st0" d="M1738.4,570.8c32.4,18.1,32.4,18.1,32.9,17.8c-6.3-6.6-52.4-30.7-64.4-34.9c0.6,0.5,0.6,0.5,5.3,2.9
		C1719.4,560.5,1726.9,564.4,1738.4,570.8"/>
	<path class="st0" d="M1718.3,565.8c13.7,8.2,30.8,18.4,33.4,17.7c-1.7-6.1-47.7-30.1-58.6-33.3c-0.1,0-0.3,0-0.4-0.1
		C1692.9,550.7,1692.9,550.7,1718.3,565.8"/>
	<path class="st0" d="M1690,559.5c24.2,16.4,33.8,19.3,32.8,16.1c-2.3-6.8-38.6-27-50.1-30.1c-0.3,0-0.7-0.1-1-0.1
		C1671.7,546,1671.7,547.1,1690,559.5"/>
	<path class="st0" d="M1654.4,552.1c16.3,14,31.2,19.2,31.6,14.9c0.5-6.2-26.9-24-39.6-27.2c-1.4-0.2-3.7-0.6-1.2,2.9
		C1646.8,545.1,1650.3,548.6,1654.4,552.1"/>
	<path class="st0" d="M1612.3,543.8c8.6,12.4,28.1,19.5,30.1,12.9c1.9-6.6-16.1-20.5-27.9-23.2
		C1604.1,532,1612.2,543.7,1612.3,543.8"/>
	<path class="st0" d="M1568.2,535.5c0.6,11.6,20.3,18,26.3,11.1c4.9-5.6-3.8-17.3-14.7-19.7C1570.9,525.6,1568,531.5,1568.2,535.5"
		/>
	<path class="st0" d="M1524.8,527.7c-5.8,7.3,3.4,13.5,13.9,12.2c12.7-1.5,17.7-12.4,10.8-17.5c-1.6-1.2-3.3-1.6-4.5-1.8
		C1537,519.4,1528.2,523.4,1524.8,527.7"/>
	<path class="st0" d="M1483.9,520.7c-7.5,4-8.4,8.6-2,10.3c14.2,3.9,36.5-9.4,33.3-14.6c-0.6-1-2.2-1.4-3.2-1.6
		C1503.8,513.7,1490.6,517,1483.9,520.7"/>
	<path class="st0" d="M1446.9,514.6c-9.8,3.1-14.3,6.8-10.5,8.6c9.4,4.5,47.8-8.2,47.2-12.5c-0.1-0.6-0.9-0.7-1.9-1
		C1474.3,508.9,1457.7,511.2,1446.9,514.6"/>
	<path class="st0" d="M1415.4,509.9c-13.4,2.9-19.4,6-17.4,7.4c4.8,3.3,55.5-7.9,58.3-11.1c-0.2-0.2-0.7-0.4-1-0.5
		C1449.7,505.1,1431.3,506.5,1415.4,509.9"/>
	<path class="st0" d="M1391.1,506.7c-2.1,0.3-20.6,3.5-23.6,6.1c0.1,0.1,0.2,0.3,0.3,0.5c7.1,1.5,66.2-10.1,66.7-10.2
		c-0.1-0.1-0.2-0.2-0.2-0.4C1429.8,502.4,1410.4,503.5,1391.1,506.7"/>
	<path class="st0" d="M1375.6,505.4c-13.6,1.9-26.3,4.4-28.9,5.6c2.9,0.7,72.2-9.5,72.9-9.7c0,0,0-0.1,0-0.1
		C1416.5,501.2,1397.2,502.3,1375.6,505.4"/>
	<path class="st0" d="M1342.5,510.2c10.3-1.9,26.6-4.7,45.6-6.8l-16.9,2.1l-30.1,5C1341.5,510.4,1342.1,510.3,1342.5,510.2"/>
	<path class="st0" d="M1817.6,620.2c27.3,20.8,27.8,21.2,30.2,22.3c-0.9-4.9-51.3-40.9-59.3-44.6
		C1788.6,598.1,1788.6,598.1,1817.6,620.2"/>
	<path class="st0" d="M1795.1,614.2c11,8.8,30,23.5,33.4,22.4c2-5.2-43.8-39.1-56-43.2c-0.2,0-0.4-0.1-0.5-0.1
		c-0.1,0.1-0.2,0.3-0.2,0.4C1773.4,596.5,1785.4,606.4,1795.1,614.2"/>
	<path class="st0" d="M1760.5,606.1c20,17.9,35.9,26.1,35.7,20.9c-0.3-7.7-35.6-35.8-50.4-40.1c-1.4-0.2-3.6-0.6-0.3,3.9
		C1748,594.2,1753.8,600.1,1760.5,606.1"/>
	<path class="st0" d="M1714.7,596.3c16.4,17.9,37.3,27.2,37.4,19c0.1-9.2-27.2-32.3-42.9-36.5c-7.9-1.2-3,6.8,0.7,11.7
		C1711.1,592.2,1713.1,594.5,1714.7,596.3"/>
	<path class="st0" d="M1659,585c11.7,18.7,37.6,27.6,39.1,16.7c1.3-9.5-18.9-28.5-34.3-32.2C1652,567.7,1654.6,578.1,1659,585"/>
	<path class="st0" d="M1596.4,573c4.2,17.8,33,26.2,38.7,15c4.3-8.4-7.8-25-24.3-28.8C1597.5,557.2,1594.9,566.6,1596.4,573"/>
	<path class="st0" d="M1533.7,561.4c-3.5,14.5,19.2,23.5,32.2,16c13-7.5,6.3-24.3-7.7-28c-0.5-0.1-1.2-0.3-1.7-0.4
		C1543.3,547.1,1535.2,555.1,1533.7,561.4"/>
	<path class="st0" d="M1473.3,550.8c-8.3,10.5,3.2,18.7,17.6,16.9c18.5-2.3,28-17.9,19.3-25.3c-2.2-1.9-4.9-2.5-6.6-2.8
		C1490.3,537.8,1477.7,545.2,1473.3,550.8"/>
	<path class="st0" d="M1417.4,541.4c-9.5,6.8-9.1,13.6,0.8,15.3c19.2,3.2,46.6-14.8,40.7-23.1c-1.2-1.7-3.6-2.2-5.1-2.5
		C1442.2,529.7,1425.8,535.3,1417.4,541.4"/>
	<path class="st0" d="M1368.2,533.6c-11.5,5.7-15.3,11.6-8.6,13.5c15.5,4.5,56.3-15.3,53-21.7c-0.5-1-1.8-1.3-3.2-1.6
		C1398.9,522.8,1379.6,528.1,1368.2,533.6"/>
	<path class="st0" d="M1328.1,527.9c-12.6,4.8-19.8,9.9-16.8,11.9c6.7,4.5,64.7-14.5,62.7-20.5c-0.2-0.5-1.1-0.7-1.8-0.8
		C1363.9,517.8,1343.3,522.2,1328.1,527.9"/>
	<path class="st0" d="M1299.3,524.6c-8.7,2.8-23.4,8.2-23.2,10.8c5,3.6,65.4-17.2,68.7-19.9c0-0.1-0.1-0.3-0.1-0.5
		c-0.2,0-0.4-0.1-0.6-0.1C1338.2,514.7,1317.4,518.9,1299.3,524.6"/>
	<path class="st0" d="M1284.7,524.1c-13.5,4-26,8.3-28.9,10c2.3,0.6,71.5-20.1,71.6-20.4C1324.3,514,1306.1,517.8,1284.7,524.1"/>
	<path class="st0" d="M1890.1,680.6c8.5,8.6,16.1,18.1,25.6,25.9c-0.2-0.4-0.2-0.5-2.6-3.1l-10.9-11.8
		c-11.2-10.9-25.8-25.8-37.4-36.3c-1.4-1.2-1.6-1.4-2-1.7c0.3,0.4,0.3,0.4,5,5C1873.4,664,1880.3,670.7,1890.1,680.6"/>
	<path class="st0" d="M1870.1,674.3c4.5,4.7,27.2,28.1,30.8,26.3c1.7-6.6-41-47.8-51.3-51.9c-0.2,0-0.6,0-0.8,0.1
		C1848.7,651.8,1865.1,669.1,1870.1,674.3"/>
	<path class="st0" d="M1833.9,665.3c18.4,20.9,35.4,31.3,35.8,24.8c0.6-9.8-33.2-44-48.3-48.8c-5.7-0.9-0.7,7.2,4.5,14.2
		C1827.5,657.6,1830.2,661.1,1833.9,665.3"/>
	<path class="st0" d="M1782.8,653.9c16.5,21.9,39.2,33.1,40.3,23c1.3-11.7-26.5-40.5-43.8-45.3
		C1767,629.8,1777.7,647.1,1782.8,653.9"/>
	<path class="st0" d="M1718.2,640.5c12.4,21.9,40,33.3,44.3,22c4.5-11.7-18.5-37.5-37.8-42.4
		C1710.4,617.9,1713.1,631.4,1718.2,640.5"/>
	<path class="st0" d="M1641.8,625.4c6.6,21.3,41.6,35.1,48.6,19.2c5-11.3-10.5-32.7-31.5-37.7
		C1641.4,604.2,1639.1,616.8,1641.8,625.4"/>
	<path class="st0" d="M1561.5,610.3c-0.1,19.9,33.3,33.2,46.4,18.4c9.3-10.5-0.1-30.7-21.2-35.6
		C1569.3,590.6,1561.5,601.6,1561.5,610.3"/>
	<path class="st0" d="M1482.5,596c-6.1,16.9,18.5,29.7,38.1,19.8c17.8-9,14.2-29-1.5-34.7c-1.3-0.5-3-0.9-4.3-1.2
		C1497.3,577.6,1485.4,587.9,1482.5,596"/>
	<path class="st0" d="M1407.8,583.1c-9.3,12.5,1.8,23.8,20.8,21.2c24.7-3.4,37.1-25,24.4-33.7c-2.4-1.7-4.7-2.2-7.1-2.7
		C1429,565.8,1413.4,575.5,1407.8,583.1"/>
	<path class="st0" d="M1340.2,572.1c-11.2,9.8-9.1,18.9,4.5,19.8c23.8,1.7,52.1-21,44.6-31.2c-1.7-2.3-4.7-2.9-6.6-3.3
		C1367.2,555.6,1348.2,565.1,1340.2,572.1"/>
	<path class="st0" d="M1282.6,563.4c-13,8.5-15.6,16.6-5.9,18.1c20.5,3.1,60.5-22.1,55.2-30.6c-0.8-1.4-2.5-1.7-4.2-2.1
		C1315.3,547.7,1294.7,555.5,1282.6,563.4"/>
	<path class="st0" d="M1238,557.5c-14,7.5-20.6,14.6-15.3,16.3c11.3,3.8,66.8-22.6,63.1-30.1c-0.3-0.7-1.4-0.9-2.2-1.1
		C1273.8,542.1,1252.1,549.9,1238,557.5"/>
	<path class="st0" d="M1209.3,555c-2.3,1.1-22.9,11-23.1,14.8c3.6,3.5,66-24.2,67.4-29.9c-0.2-0.2-0.5-0.3-0.8-0.4
		C1246.7,539.5,1226.4,546.8,1209.3,555"/>
	<path class="st0" d="M1950.7,749.6c3.6,4.8,6.1,8.5,7.5,10.4l-17-23C1942.4,738.6,1946.1,743.3,1950.7,749.6"/>
	<path class="st0" d="M1936.7,743.8c2.2,3,21.5,29.1,25.8,29.6c3.3-3.4-34.8-54.6-44.2-59.5c-0.1,0-0.3,0-0.4,0
		C1916.3,715.9,1934.6,741,1936.7,743.8"/>
	<path class="st0" d="M1902.5,734.6c15,21.6,32.5,36.3,33.3,27.9c1.2-11.4-29.8-51.3-43.6-56.2
		C1883.7,705.1,1896.8,726.3,1902.5,734.6"/>
	<path class="st0" d="M1849.7,722.3c14.4,23.5,38.2,38.9,40.5,26.2c2.5-14-24-47.5-41.7-52.7
		C1836.5,693.9,1842.9,711.1,1849.7,722.3"/>
	<path class="st0" d="M1780,707.4c11.7,24,41.2,39.9,47.1,25.4c5.3-13-16-44.1-38.4-50.1C1772.4,680.1,1774.7,696.5,1780,707.4"/>
	<path class="st0" d="M1695.1,690.2c7.6,23.9,43.4,40.2,53.2,24.3c8-13-9.2-41-34.1-47.1C1695.1,664.4,1691.5,678.9,1695.1,690.2"/>
	<path class="st0" d="M1599.8,671.8c2.4,24.5,41.6,40.2,56,22.3c10.4-12.9-2.3-37.7-28-43.7C1606.8,647.3,1598.8,661.1,1599.8,671.8
		"/>
	<path class="st0" d="M1504.3,654.2c-3.4,22.3,30.3,37.5,50.7,22.9c16.3-11.6,10.4-37.3-16.1-43.3
		C1517.6,630.9,1505.9,644,1504.3,654.2"/>
	<path class="st0" d="M1412.2,638c-8,19.1,15.8,33.5,39.8,24.1c23.8-9.4,24.9-33,7.7-41.4c-2.7-1.3-5.3-1.9-7.4-2.3
		C1431.5,615.6,1416.4,628.2,1412.2,638"/>
	<path class="st0" d="M1327.1,623.7c-10.6,15.2,1.4,28.1,22.9,24.8c28.4-4.4,43.6-30.6,29.3-40.8c-2.8-2-5.4-2.6-8.2-3.2
		C1351.6,602.2,1333.6,614.3,1327.1,623.7"/>
	<path class="st0" d="M1252.2,611.9c-12.5,12.9-8.6,24.1,8.1,23.6c27.4-0.9,55.4-29.8,44.6-39.9c-2-1.8-4.2-2.3-6.6-2.8
		C1281,591,1260.9,602.9,1252.2,611.9"/>
	<path class="st0" d="M1191.1,603.3c-13.1,10.8-15.5,20.3-5.5,21.7c21,3,62.5-29,56.5-38.7c-1-1.7-2.8-2-4.6-2.4
		C1224.6,582.9,1203.3,593.2,1191.1,603.3"/>
	<path class="st0" d="M1147.2,598.2c-14.6,10.3-20.9,19.4-14.1,20.2c14.7,1.7,67.6-33.2,60.1-39.7c-0.4-0.4-1.2-0.5-1.8-0.6
		C1182,577.8,1161.1,588.4,1147.2,598.2"/>
	<path class="st0" d="M1993.4,821.6c3.7,6.8,15.9,29.2,18.6,31.8c0.1-0.4,0.3-0.8-3.8-9.1c-7.8-14.5-17.9-34-26.3-48.2
		c-2.9-4.7-4.6-7.4-5.6-8.4C1975.9,789.1,1986.9,809.6,1993.4,821.6"/>
	<path class="st0" d="M1966.5,813.2c11.9,22.4,25.8,38.2,27.6,31.3c2.6-9.7-23.1-57.8-36.3-63.4
		C1951.3,780.1,1959.7,800.2,1966.5,813.2"/>
	<path class="st0" d="M1917.4,800.9c12,24.7,32.7,41.5,37,30.1c4.8-13-17.9-54.4-36.6-60.5C1905.9,768.7,1911.2,788.2,1917.4,800.9"
		/>
	<path class="st0" d="M1848,785.4c10.9,26.7,40,44.2,46.5,27.9c6-15.1-14.1-50.3-36.5-56.6C1842,754.3,1842.5,772,1848,785.4"/>
	<path class="st0" d="M1760.1,767.1c8.1,27.3,44.7,45.2,55.1,27c8.6-15.1-8.9-47.2-35-53.9C1759.9,737.1,1756.2,754.1,1760.1,767.1"
		/>
	<path class="st0" d="M1656,746.6c4.2,27.9,48.3,46,62.9,25.7c10.9-15.2-4.1-44-32.6-50.9C1662.2,717.8,1654.1,733.9,1656,746.6"/>
	<path class="st0" d="M1546.4,725.9c-0.7,27.4,42,44.7,61.9,25c14.6-14.6,4.1-42.5-25.3-49.2
		C1558.3,698.1,1546.7,713.7,1546.4,725.9"/>
	<path class="st0" d="M1438.7,706.4c-5.5,25.3,30.7,42,55.5,25.6c20-13.3,16-42.5-13.8-49.2C1455.9,679.5,1441.3,694.6,1438.7,706.4
		"/>
	<path class="st0" d="M1336.7,688.8c-9,21.6,16.7,37.7,43.1,27c26.5-10.8,31.3-39.9,7.9-48.7c-1.7-0.6-4-1.2-5.7-1.5
		C1358.6,662.7,1341.4,677.4,1336.7,688.8"/>
	<path class="st0" d="M1244.3,673.8c-11.6,18.8,3.6,33.5,28,27.3c28.8-7.4,45.3-37.5,26.3-48.1c-2.5-1.4-5.1-1.9-7.2-2.4
		C1270.3,648.2,1251.2,662.7,1244.3,673.8"/>
	<path class="st0" d="M1165.6,661.9c-13,16.2-7,29.3,12.1,26.6c27.6-4,56.2-37.6,40.8-48c-1.8-1.2-4-1.7-5.7-2.1
		C1194.6,636.7,1174.3,651.1,1165.6,661.9"/>
	<path class="st0" d="M1104.5,653.8c-13.5,14-14.8,25.2-2.9,25.1c21.3-0.2,62.1-37.6,51.9-47.7c-1.1-1.1-2.7-1.4-4-1.7
		C1135.3,628.8,1114.6,643.3,1104.5,653.8"/>
	<path class="st0" d="M2033.9,905c4.2,11.6,6.6,19,7.5,21.8c-5.2-14.3-11.7-33.5-17.5-47.5C2027.9,888.7,2031.9,899.4,2033.9,905"/>
	<path class="st0" d="M2016.6,897.8c8.4,22.6,18.2,39,20.1,33.8c2.8-7.5-17.2-63.9-26.9-69.4C2005.2,861.7,2011,882.7,2016.6,897.8"
		/>
	<path class="st0" d="M1973.8,886.2c8.9,25.3,25.5,43.1,31,33.2c7-12.3-11.3-60.7-28.7-67C1965.7,850.9,1968.5,871.2,1973.8,886.2"
		/>
	<path class="st0" d="M1907.5,870.7c8.6,27.9,33.7,46.5,42.6,31.6c9.2-15.5-7.9-56.8-30.7-63.6
		C1903.6,836.2,1902.9,855.9,1907.5,870.7"/>
	<path class="st0" d="M1819.9,851.9c7.3,30.4,42.9,49.3,54.4,29c9.5-16.9-6.6-52.3-32.7-59.3
		C1820.8,818.4,1816.4,837.4,1819.9,851.9"/>
	<path class="st0" d="M1713,830.3c4.7,31.2,49.4,50.5,64.7,27.9c11.6-17.1-3.6-49.2-33-56.5C1719.3,797.8,1710.9,816.1,1713,830.3"
		/>
	<path class="st0" d="M1593,807.1c0.8,30.9,47.6,50,68.6,28.1c15.7-16.4,3-47.9-29.6-55.6C1604.4,775.6,1592.6,793.3,1593,807.1"/>
	<path class="st0" d="M1472.5,784.9c-3.3,30.1,41.8,48.6,66.2,27c18.2-16.1,9.5-46.7-22.6-54C1488.5,754.1,1474,771.4,1472.5,784.9"
		/>
	<path class="st0" d="M1356.3,764.4c-7.1,28.1,30.6,45.9,58.5,27.7c22.8-14.9,20.4-47.3-11.8-54.4
		C1376.4,734.3,1359.7,751.3,1356.3,764.4"/>
	<path class="st0" d="M1248.8,746.4c-9.7,24.3,16.6,41.5,44.6,29.3c28.4-12.4,34.1-44.9,9.6-54.4c-1.8-0.7-4.3-1.2-6.1-1.6
		C1272.2,716.7,1253.9,733.5,1248.8,746.4"/>
	<path class="st0" d="M1154.2,731.5c-11.5,21.4,3.7,37.2,28.5,29.7c29.5-8.9,46.2-42.9,26.7-54.3c-2.6-1.5-5.3-2.1-7.4-2.5
		C1180.2,702.2,1161,718.9,1154.2,731.5"/>
	<path class="st0" d="M1076.9,720.5c-12.3,18.6-6.5,32.8,11.9,29.1c26.9-5.3,54.4-43.8,39.2-54.9c-1.8-1.3-4-1.8-5.7-2.2
		C1104.6,691.3,1085.1,708.1,1076.9,720.5"/>
	<path class="st0" d="M2052.3,987.5c2.8,12.9,7.8,33.1,10.3,35.8c0.5-0.5,1.6-1.3-2.8-24.8l-5.2-24.4c-3.5-15-6.1-23.4-7.5-25.1
		C2044.6,951,2052.3,987.2,2052.3,987.5"/>
	<path class="st0" d="M2019.8,977.4c5.4,25,17,43.3,22.5,35.5c7.5-10.6-4.2-66-18.5-72.2C2015.3,939.5,2016.3,961.4,2019.8,977.4"/>
	<path class="st0" d="M1960.9,962.8c5.6,28,25.5,47.4,35.5,34.5c11.5-14.8-0.6-62.4-22-69.5C1959.8,925.6,1957.7,946.9,1960.9,962.8
		"/>
	<path class="st0" d="M1878,944.3c5.1,31,35.5,50.9,49.2,32.4c12.9-17.4-0.2-58.3-26.3-65.7C1880.8,907.9,1875.4,928.6,1878,944.3"
		/>
	<path class="st0" d="M1773.3,922.5c3.7,32.6,43.2,53,61.2,31.7c15-17.7,1.9-55.5-28.8-63.4C1780.4,886.9,1771.5,907,1773.3,922.5"
		/>
	<path class="st0" d="M1649.5,898.1c1.4,33.5,50.7,54.3,72.2,30.4c16.5-18.3,4-52.3-30.9-60.7C1659.5,863,1648.9,883.9,1649.5,898.1
		"/>
	<path class="st0" d="M1519.6,873.6c-1.6,33.4,47,53.4,72.2,29.8c18.9-17.7,8.3-51.6-26.8-59.7
		C1534.9,839.4,1520.3,858.6,1519.6,873.6"/>
	<path class="st0" d="M1391.9,850.6c-4.5,30.6,38.1,50.5,66,30.8c23.5-16.5,17.8-52.5-18-60.5
		C1410.4,816.9,1394.1,835.8,1391.9,850.6"/>
	<path class="st0" d="M1271.2,829.8c-7.1,29,27.4,47.9,56.8,31.2c28.4-16.1,25.9-52.2-4.2-60.3c-1.1-0.3-2.5-0.6-3.6-0.8
		C1292.3,796.5,1274.7,815.3,1271.2,829.8"/>
	<path class="st0" d="M1162.1,812c-9.3,26.9,16.9,44.9,45.1,31c28.7-14.1,34.3-49.8,9.4-59.6c-1.8-0.7-4.3-1.3-6.2-1.7
		C1185.2,778.9,1167,797.7,1162.1,812"/>
	<path class="st0" d="M1069.2,798c-10.3,23.5,4.8,40.3,28.3,31.7c29.7-10.9,44.6-51.6,22.5-61.3c-1.5-0.6-3.6-1.1-5.1-1.4
		C1093.6,765,1075.3,783.9,1069.2,798"/>
	<path class="st0" d="M2069.6,1080.5c0.6,10.7,1,20.1,1,26.5c-0.9-17.4-1.7-40.7-3.4-58C2068.4,1059.6,2069.2,1073.3,2069.6,1080.5"
		/>
	<path class="st0" d="M2050.9,1072.5c1.8,24.2,7.7,42.5,11.9,36.9c6.3-8.3,3.3-70.1-6.5-76
		C2050.6,1032.7,2049.7,1055.9,2050.9,1072.5"/>
	<path class="st0" d="M2003.4,1059.6c2.1,27.7,15.8,47.1,25.7,36.5c12.7-13.6,7.7-67-10.8-73.9
		C2005.9,1020.3,2002.1,1042.9,2003.4,1059.6"/>
	<path class="st0" d="M1929.4,1042.3c2.2,31.2,25.8,51.4,40.8,35c15.7-17.2,8.3-63.2-16.6-70.8
		C1935,1003.6,1928.3,1025.7,1929.4,1042.3"/>
	<path class="st0" d="M1831.4,1021.2c1.7,33.9,38,54.8,56.4,32.4c16-19.5,6.3-58.7-23.3-66.7
		C1840.3,983.1,1830.5,1004.7,1831.4,1021.2"/>
	<path class="st0" d="M1711.6,996.9c0.7,33.7,44.1,55.6,67.3,33.9c20.2-18.8,10-58-25.6-66.9C1724,959.5,1711.2,980.6,1711.6,996.9"
		/>
	<path class="st0" d="M1576.6,970.9c-1,35.1,49.9,56.5,75.5,31.9c19.8-19.1,8.5-55.5-28.4-64.2
		C1590.2,933.7,1577,955.8,1576.6,970.9"/>
	<path class="st0" d="M1441,945.8c-2.9,34.7,47,55.6,74.2,31c21-19,11.6-54.9-24.9-63.2C1458.5,909.2,1442.3,929.8,1441,945.8"/>
	<path class="st0" d="M1310,922.7c-4.8,33,37.8,53.4,67,32.1c25.1-18.4,20.3-56.2-17.2-64.5C1329.3,886.3,1312.3,906.9,1310,922.7"
		/>
	<path class="st0" d="M1188.7,902.3c-6.3,30.8,28.3,50.5,57,32.5c28.3-17.8,25.5-56.5-4.7-64.7c-1.1-0.3-2.6-0.6-3.7-0.8
		C1209.1,866,1191.9,886.6,1188.7,902.3"/>
	<path class="st0" d="M1081.8,885.5c-7.7,28.9,18.1,47.6,44.6,32.3c29.2-16.8,31.9-57.8,4.3-65.5c-0.9-0.3-2.2-0.5-3.2-0.7
		C1102.8,849.2,1085.9,869.9,1081.8,885.5"/>
	<path class="st0" d="M2061.3,1169.1c-1.1,13.6-2,34.9,0.2,37.8c5.7-3.2,9.7-75.6,7.2-78.8
		C2065.3,1129.9,2062.2,1158.3,2061.3,1169.1"/>
	<path class="st0" d="M2026.3,1158.2c-1.7,26.4,5.8,45.8,14.6,37.7c12.7-11.8,17.5-70.1,2.3-77
		C2033.4,1117.5,2027.4,1141,2026.3,1158.2"/>
	<path class="st0" d="M1963.1,1142.5c-1.5,30.2,15.2,50.6,30.4,36.8c17.6-15.9,18-67.1-4.4-74.6
		C1972.6,1102.3,1964,1125.3,1963.1,1142.5"/>
	<path class="st0" d="M1874.1,1122.7c-1.4,33.5,27.3,54.6,47.2,34.8c19.6-19.4,15.5-63-12.9-71.2
		C1886,1082.9,1874.9,1105.5,1874.1,1122.7"/>
	<path class="st0" d="M1761.7,1099.3c-1.4,35.5,37.9,57.2,61.8,34.3c20.8-20,14-60.7-19.5-69.4
		C1776,1059.9,1762.4,1082.1,1761.7,1099.3"/>
	<path class="st0" d="M1628.8,1073.1c-1.7,36.7,48.9,59,75.2,33.1c18.7-18.4,14.3-57.5-26.1-67.3
		C1643.5,1033.7,1629.5,1057.1,1628.8,1073.1"/>
	<path class="st0" d="M1489.3,1046.8c-2.4,37,48.3,58.7,76.5,32.7c22-20.3,13-57.9-25.9-67
		C1504.9,1007.5,1490.3,1030.9,1489.3,1046.8"/>
	<path class="st0" d="M1352.2,1022c-3.1,35.5,41.4,56.9,71.2,34.2c25.6-19.5,18.9-59.9-20.8-68.8
		C1368.5,982.9,1353.6,1006.2,1352.2,1022"/>
	<path class="st0" d="M1222.6,999.7c-4,35.3,37.4,55.8,66.1,32.7c24.7-19.9,19.7-59.8-17.4-68
		C1240.9,960.7,1224.5,982.8,1222.6,999.7"/>
	<path class="st0" d="M1105.4,980.6c-4.8,33.2,28.4,53,55.4,33.1c26.2-19.2,24.7-61.8-10.1-69.4
		C1123.5,941.5,1107.8,963.8,1105.4,980.6"/>
	<path class="st0" d="M1171.7,569.6c-0.3,0.2-0.7,0.4-1,0.6c0.6-0.2,68.2-30.6,68.3-30.8c-0.1,0-0.3,0.1-0.5,0.2
		c-14.9,6.3-34.9,14.4-49.5,21.3L1171.7,569.6C1171.7,569.5,1171.7,569.5,1171.7,569.6"/>
	<path class="st0" d="M1124.9,597.4c-11.6,7.6-23.9,16.7-23.4,18.6c4.4,1.1,59.8-33.6,63.1-39.6c-0.1-0.1-0.3-0.3-0.4-0.4
		C1159.2,576.8,1139.9,587.7,1124.9,597.4"/>
	<path class="st0" d="M1065.1,650.2c-13.9,12.8-20.1,22.8-14.3,23.3c13.2,1.2,62.5-41.1,56.1-48.1c-0.3-0.4-1.1-0.5-1.5-0.6
		C1096.3,625.1,1076.4,639.9,1065.1,650.2"/>
	<path class="st0" d="M1032.1,669.5c-3.2,3-3.5,3.5-3.7,3.9c3.9-1.1,55.4-46.3,56.9-48.7c0,0-0.1,0-0.1-0.1
		c-0.5,0.3-1.1,0.5-5.2,3.7c-13.9,11.6-32.7,27-46,39.3l-1.1,1.1C1032.6,669,1032.3,669.3,1032.1,669.5"/>
	<path class="st0" d="M1021.3,714.1c-12.2,15.9-13.8,28.4-3.4,27.8c21.3-1.3,59.8-47.3,46.9-56c-0.7-0.5-1.8-0.7-2.6-0.9
		C1049.5,684.8,1030.7,701.9,1021.3,714.1"/>
	<path class="st0" d="M992.8,713c-12.6,14.9-19.1,25.8-15.4,26c9.5,0.3,55.6-52.5,49.3-56.5c-0.1-0.1-0.4-0.1-0.6-0.1
		C1019.8,683.4,1002.4,701.7,992.8,713"/>
	<path class="st0" d="M997.3,788.5c-10.7,20.6-5.2,35.8,11.3,31.3c26.1-7.1,50.8-53.2,33.5-62.4c-1-0.6-2.6-0.9-3.8-1.2
		C1022,755.5,1004.5,774.7,997.3,788.5"/>
	<path class="st0" d="M951.3,784.5c-11.4,19.2-12.7,32.8-2.9,29.6c19.2-6.3,50.4-58.3,37.8-63.2c-0.3-0.1-0.8-0.2-1.2-0.3
		C974.7,751.1,958.9,771.6,951.3,784.5"/>
	<path class="st0" d="M923.5,807.6c-3.1,5.5-3.2,6.3-3.3,6.8c5.5-1.8,41-60,41.3-63.8c-0.1,0-0.1-0.1-0.2-0.1
		c-0.9,0.6-2,1.9-6.2,7.6c-9.4,14.3-22.2,33.2-30.8,47.9C924.1,806.6,923.7,807.1,923.5,807.6"/>
	<path class="st0" d="M994.2,873c-8.4,25.8,6,43.2,27.5,33.2c29.4-13.7,40.5-60.5,16-67.7c-0.8-0.2-1.8-0.4-2.5-0.5
		C1015.3,836.5,999.2,857.6,994.2,873"/>
	<path class="st0" d="M930.9,865.6c-8.6,22.8-3.6,38.5,10.5,32.9c24.1-9.4,43.9-63,25.5-69.1c-0.5-0.2-1.2-0.3-1.8-0.4
		C950.4,828.9,936.3,851.4,930.9,865.6"/>
	<path class="st0" d="M898.1,864.3c-8.5,20-10.8,33.6-5.5,31.8c12.1-4.1,39.5-65.6,31.1-70.1c-0.2-0.1-0.5-0.1-0.8-0.2
		C916.2,827.2,904.4,849.5,898.1,864.3"/>
	<path class="st0" d="M886,884.7c5.4-13.3,13.2-30.8,19.5-43.5L885.9,885C885.9,884.9,886,884.8,886,884.7"/>
	<path class="st0" d="M1005.7,965.6c-5.5,31.2,18.7,50.1,42.4,33c25.1-18.1,28-63.9-2.2-70.5C1023,926.2,1008.6,948.9,1005.7,965.6"
		/>
	<path class="st0" d="M928.5,955.4c-5.7,27.5,7.6,45.4,25.4,34.1c24.8-15.7,31.9-65.9,10.3-72.6c-0.7-0.2-1.6-0.3-2.3-0.5
		C943.6,915.7,931.7,940,928.5,955.4"/>
	<path class="st0" d="M879.1,951.1c-5.9,24.6-2.1,40.5,8.2,34c18-11.4,31.7-69.2,17.6-74.5c-0.4-0.1-0.9-0.2-1.3-0.3
		C892.8,911,882.8,935.7,879.1,951.1"/>
	<path class="st0" d="M858.1,973.2c-2.6,11.2-2.2,12.5-2.1,13.2c4.6-1.5,23.8-69,21.7-76.1c-0.1,0-0.2-0.1-0.3-0.1
		c-0.5,0.4-1.7,1.4-6.2,15.4l-12.5,44.8C858.5,971.3,858.3,972.4,858.1,973.2"/>
	<path class="st0" d="M2048.2,1277.1c-2.7,9.8-6.3,23-8.8,30.4c5.7-19.9,13.4-46.5,18-66.8
		C2055.3,1250.5,2050.7,1267.8,2048.2,1277.1"/>
	<path class="st0" d="M2028.8,1269c-5.3,22-4.9,39.5,0.8,36.8c8.4-4,28.7-69.8,18.7-76.5C2042.3,1228.6,2033.5,1249.4,2028.8,1269"
		/>
	<path class="st0" d="M1980,1255.7c-5.8,27.4,3.3,46.3,17.3,36.1c18.5-13.5,29.6-67,10.8-74.3
		C1994.6,1215.6,1983.5,1238.7,1980,1255.7"/>
	<path class="st0" d="M1904.1,1237.9c-5.1,28.9,12.7,49.1,32.4,36.8c23.7-14.9,30.5-65.3,3.7-73.7
		C1920.3,1198,1907.1,1220.8,1904.1,1237.9"/>
	<path class="st0" d="M1803.5,1216.3c-4.7,32.8,25.5,53.8,50.4,35c24.3-18.2,24.1-62.2-7.3-70.9
		C1821,1176.6,1806,1199.1,1803.5,1216.3"/>
	<path class="st0" d="M1680.7,1191.5c-3.6,34.1,38,56.1,65.5,34.6c24.4-19.1,19.9-60.5-16.2-69.6
		C1699.1,1151.8,1682.6,1174.1,1680.7,1191.5"/>
	<path class="st0" d="M1542.5,1164.8c-3,36.8,46.5,58.2,75.7,32.8c23.1-20.1,14.6-58.5-23.8-67.7
		C1560.9,1125,1543.9,1147.4,1542.5,1164.8"/>
	<path class="st0" d="M1403.5,1139.2c-2.3,36.9,47.1,57.9,75.6,32.1c22.5-20.4,13.5-58.8-24.7-67.6
		C1421.2,1099.2,1404.7,1121.7,1403.5,1139.2"/>
	<path class="st0" d="M1269.5,1115.5c-1.9,37,45.6,57.3,72.6,31c21.3-20.7,12.3-59-24.3-67.2
		C1285.9,1075.2,1270.4,1098,1269.5,1115.5"/>
	<path class="st0" d="M1145.3,1094.6c-1.5,34.8,38.7,54.8,64.1,32c22.4-20.1,15.5-61.5-19.9-69.3
		C1160.2,1054,1146,1077.1,1145.3,1094.6"/>
	<path class="st0" d="M1035.9,1077.4c-1.3,32.9,30.5,52.2,53.2,32.4c22.5-19.6,17.7-63.9-14.6-70.9
		C1049.1,1036.4,1036.7,1059.9,1035.9,1077.4"/>
	<path class="st0" d="M946.5,1064.6c-1.4,31.1,21.5,49.4,40.2,32.2c20.8-19.1,19-66.3-8.7-72.3
		C957.6,1023.2,947.2,1047.2,946.5,1064.6"/>
	<path class="st0" d="M881.8,1057.1c-1.6,28.1,10.6,45.2,23.9,33.3c17.7-15.9,20.5-70.5-0.9-75.2
		C890.6,1015.2,882.8,1039.7,881.8,1057.1"/>
	<path class="st0" d="M848.4,1055.8c-1.9,23.6,0.8,38.7,6.1,34.3c8.5-7,18.6-75,6.3-78.1C854.2,1013.4,849.7,1039.6,848.4,1055.8"/>
	<path class="st0" d="M842.4,1083.7c0.8-15.4,3.7-44.3,5.9-59.6c-1.8,17.2-4.8,40-5.8,57.3l-0.1,2.5
		C842.4,1083.9,842.4,1083.8,842.4,1083.7"/>
	<path class="st0" d="M2011.8,1360.8c-5.1,12-12.1,30.8-10.7,33.4c6.9-2.6,32.5-67.9,31-70.9
		C2029.5,1323.2,2019.5,1342.6,2011.8,1360.8"/>
	<path class="st0" d="M1979,1350.4c-8.4,22.1-7,38.9,2.9,34.6c15.2-6.7,40.4-63.8,26.1-70.6C1998,1313,1985,1334.6,1979,1350.4"/>
	<path class="st0" d="M1918.5,1335.3c-8.3,25.4,1.7,43.6,19.1,34.8c23.4-11.9,40-61.9,17.4-69.7
		C1938.6,1298,1923.8,1319.3,1918.5,1335.3"/>
	<path class="st0" d="M1832.8,1316.1c-7.7,28.8,13.5,48.1,37.2,34c26.3-15.7,34.3-59.6,5.8-67.9
		C1853.3,1278.8,1837.1,1300,1832.8,1316.1"/>
	<path class="st0" d="M1724,1293.4c-6.2,30.6,25.5,51,52.9,34.1c27.3-16.8,29.2-58.5-4.5-67.4
		C1744.5,1256,1727.3,1277.1,1724,1293.4"/>
	<path class="st0" d="M1595.1,1267.9c-4.6,34.7,41.8,55.2,70.9,31.4c21.2-17.3,20.1-54.8-18.4-64.2
		C1615,1230.3,1597.3,1251.4,1595.1,1267.9"/>
	<path class="st0" d="M1459.1,1242.3c-2.7,34.5,45.6,55,73.7,31.3c22.8-19.2,14.9-55.9-22.8-64.8
		C1477,1204.1,1460.3,1225.6,1459.1,1242.3"/>
	<path class="st0" d="M1325.2,1218.1c-0.9,34.8,46.8,54.8,72.9,30.5c21.2-19.7,11.7-56.5-25.2-64.9
		C1340.7,1179.4,1325.6,1201.2,1325.2,1218.1"/>
	<path class="st0" d="M1198.4,1196.2c0.6,35.1,45.9,54.2,69.3,29.3c18.9-20.2,8.6-57.1-26.1-64.8
		C1211.3,1157,1198.1,1179.2,1198.4,1196.2"/>
	<path class="st0" d="M1083.5,1177.4c1.7,34,39,52.6,60.6,30.1c18.9-19.8,9.5-59.8-23.4-67
		C1093.6,1137.7,1082.6,1160.4,1083.5,1177.4"/>
	<path class="st0" d="M985.4,1162.5c2.3,32.3,31.6,50.2,49.6,30.4c17.8-19.5,9.4-62.5-19.7-68.8
		C992.6,1122.3,984.2,1145.5,985.4,1162.5"/>
	<path class="st0" d="M909,1152.4c2.5,30.6,23.2,47.5,36.8,30.1c15.1-19.3,8.3-65.2-15.4-70.3C913.3,1111.6,907.6,1135.4,909,1152.4
		"/>
	<path class="st0" d="M859.5,1147.9c2,25.8,11.6,41.7,19.8,32.7c12.4-13.7,9.4-70.8-8.3-74.7C860.3,1106.6,858.3,1132,859.5,1147.9"
		/>
	<path class="st0" d="M842.6,1149.5c0.5,8.9,2,29.9,4.4,33.2c0.2-0.1,0.5-0.1,0.7-0.2c4.3-9.2,0.7-75.4-4.2-77
		C840.9,1107.8,841.8,1135.3,842.6,1149.5"/>
	<path class="st0" d="M1974.3,1443.5c-13,20.6-16.7,25.9-17.9,27.6l20.1-30l18-30.5C1990.5,1417.7,1981.3,1432.4,1974.3,1443.5"/>
	<path class="st0" d="M1956.3,1435.9c-10.9,18.7-14.8,33.2-8.4,31.1c10.3-3.4,47.5-58.2,38.2-64.5
		C1979.4,1401.6,1964.6,1421.5,1956.3,1435.9"/>
	<path class="st0" d="M1910.8,1423.5c-10.6,20.6-8.5,36.1,4.3,32.7c22-5.9,48.9-56.5,34.3-64.3c-0.4-0.2-1.1-0.4-1.6-0.6
		C1934.8,1389.3,1918.3,1409,1910.8,1423.5"/>
	<path class="st0" d="M1840.2,1407c-10,23.3,1,40.6,21,33.1c28.3-10.6,45.5-55.3,24.4-63.8c-0.7-0.3-1.7-0.5-2.4-0.7
		C1864.2,1372.7,1846.6,1392.2,1840.2,1407"/>
	<path class="st0" d="M1746.7,1386.9c-8.8,26.4,13.7,45,39.4,32.6c30.2-14.5,37.4-53.8,11.5-62.6c-0.9-0.3-2.2-0.6-3.1-0.9
		C1769.9,1352.3,1751.7,1371.8,1746.7,1386.9"/>
	<path class="st0" d="M1632.5,1363.8c-6.9,30.5,29,49.6,58.2,30.9c26.5-16.9,27.4-52.9-6.9-61.5
		C1654.1,1328.8,1636,1348.4,1632.5,1363.8"/>
	<path class="st0" d="M1503.9,1339c-4.1,32.4,40.4,51.5,69,29.7c23.3-17.8,17.8-52.1-18.3-60.7
		C1522.9,1303.3,1505.9,1323.3,1503.9,1339"/>
	<path class="st0" d="M1374.7,1315.2c-1.2,32.9,44,51.8,70.1,29.3c21.2-18.3,12.8-53.1-23.1-61.3
		C1390.2,1278.8,1375.2,1299.2,1374.7,1315.2"/>
	<path class="st0" d="M1250,1293.1c1.5,33.4,45.6,51.8,68.5,28.4c18.5-18.9,7.9-54-26.6-61.7C1261.8,1256,1249.3,1277,1250,1293.1"
		/>
	<path class="st0" d="M1134.4,1273.7c3.8,33.8,45.2,51.3,64.2,27.1c15.4-19.6,3.1-54.8-28.6-61.8
		C1142.4,1235.9,1132.6,1257.4,1134.4,1273.7"/>
	<path class="st0" d="M1032.7,1257.7c5.4,32.2,39.5,49.3,55.4,27.8c14.2-19.4,1.8-57.8-27.4-64
		C1036.9,1219.2,1030,1241.3,1032.7,1257.7"/>
	<path class="st0" d="M949.5,1245.8c6.3,30.7,32.6,47.1,44.6,27.9c12.1-19.3-0.4-60.6-25.1-65.9
		C949.9,1206.6,946.1,1229.3,949.5,1245.8"/>
	<path class="st0" d="M889.4,1238.8c6.3,27.9,22.8,43.6,31.1,29.5c10.1-17.2-1.6-65.2-21-69.3
		C886.3,1199.1,885.7,1222.3,889.4,1238.8"/>
	<path class="st0" d="M858.3,1237.6c5.2,23.6,12.4,37.9,15.9,31.3c5.6-10.9-5.2-70.4-16.5-73
		C851.7,1197.4,854.9,1222.3,858.3,1237.6"/>
	<path class="st0" d="M1915.9,1512.1c-0.8,1-20,24.2-18.8,26.9c5,0.4,50.7-53.1,48.8-57.3
		C1943.1,1481.4,1928.5,1496.9,1915.9,1512.1"/>
	<path class="st0" d="M1886.1,1502.7c-12.8,17-16.2,30.1-7.5,28.6c17.1-2.8,55.1-50.6,45.7-57.4c-0.3-0.2-0.7-0.3-1-0.5
		C1913.9,1472,1895.9,1489.7,1886.1,1502.7"/>
	<path class="st0" d="M1831.9,1489.2c-11.9,18.5-9.5,32.9,5.2,30.2c24.6-4.4,55-46.7,41.1-57.2c-0.9-0.7-2.3-1.2-3.4-1.5
		C1859.4,1458.3,1840.4,1476,1831.9,1489.2"/>
	<path class="st0" d="M1755.3,1472.1c-11.1,21.4,0.2,37.3,22,30.9c29.3-8.6,49.1-46.6,29.9-57.2c-1.4-0.8-3.4-1.4-4.9-1.8
		C1781.5,1440.9,1762.3,1458.5,1755.3,1472.1"/>
	<path class="st0" d="M1658.3,1451.9c-9.6,25.6,16,42.8,43.4,29.2c29.1-14.4,34.8-48,9.5-56.2c-1-0.3-2.3-0.6-3.2-0.9
		C1682.4,1420.1,1663.6,1438,1658.3,1451.9"/>
	<path class="st0" d="M1543.6,1429.3c-6.5,29.2,32.9,46.7,61.1,27.2c23.6-16.3,22.7-47.2-10.6-55.3
		C1564.6,1396.8,1546.8,1414.9,1543.6,1429.3"/>
	<path class="st0" d="M1422.9,1406.5c-2.6,30.3,38.5,47.6,64.6,27.3c21.4-16.6,15.5-48.6-18.3-56.5
		C1439.4,1373.1,1424.1,1391.8,1422.9,1406.5"/>
	<path class="st0" d="M1304.2,1385.1c1.2,32.1,46.4,48.6,67.2,24.5c15.4-17.9,5.4-47.8-26.4-55
		C1315.9,1350.7,1303.7,1370.1,1304.2,1385.1"/>
	<path class="st0" d="M1191.9,1365.7c4.7,31.7,44.6,48.1,62.8,25.9c15-18.3,3.3-50.8-28.8-57.9
		C1198.7,1330.4,1189.7,1350.5,1191.9,1365.7"/>
	<path class="st0" d="M1090.3,1349.1c7.7,32.2,44.5,47.8,58,24.6c11.1-19.1-2.9-51.9-31.7-58.1
		C1092.3,1313,1086.6,1333.6,1090.3,1349.1"/>
	<path class="st0" d="M1003.7,1336.1c9.5,30.8,39.6,46.1,49.5,25.1c9.1-19.2-6.4-55-31.9-60.4
		C1001.2,1299.1,998.9,1320.4,1003.7,1336.1"/>
	<path class="st0" d="M936.5,1327.2c9.8,27.6,31.4,42.8,38.5,27.2c8-17.7-8.9-59.8-30.1-64.3
		C929.8,1289.6,930.9,1311.5,936.5,1327.2"/>
	<path class="st0" d="M893.3,1323.3c8.9,23.5,21.4,37.9,25.7,29.7c6.7-12.7-11.5-65.2-27.4-68.6
		C882.4,1285.1,887.7,1308.7,893.3,1323.3"/>
	<path class="st0" d="M1858.4,1577.7c-12.4,10.8-22.5,19.3-25.6,21.7l19.3-15.6c10.6-9.7,25.2-22.2,35.5-32.3
		C1882.4,1556.6,1868.7,1568.8,1858.4,1577.7"/>
	<path class="st0" d="M1843.8,1571.4c-12.4,11.7-22.9,24-17.9,24c10.8-0.1,59.5-43.6,55.4-49.5c-0.1-0.2-0.3-0.3-0.5-0.4
		C1874.9,1544.8,1855,1561,1843.8,1571.4"/>
	<path class="st0" d="M1806.1,1561.1c-12.4,13.1-18.6,26.7-7.2,25.7c20.1-1.7,60.3-40.2,51.8-49.5c-0.5-0.6-1.5-1-2.2-1.3
		C1836.6,1534.2,1816.2,1550.4,1806.1,1561.1"/>
	<path class="st0" d="M1747.2,1547.3c-12.9,16.5-10.5,29.3,5.2,27.3c27.5-3.4,60-40.3,44.6-50.6c-1-0.7-2.5-1.2-3.7-1.5
		C1776.8,1520,1756.4,1535.5,1747.2,1547.3"/>
	<path class="st0" d="M1668.9,1530.4c-11.2,18.9-0.1,33.4,21.7,28.2c28.9-6.9,49.8-38.2,33.5-49.9c-2.3-1.7-4.9-2.4-7-3
		C1695.9,1502.5,1676.2,1518.2,1668.9,1530.4"/>
	<path class="st0" d="M1573.1,1511c-9,23.2,15.7,38.8,42.6,26.8c27.2-12,34.2-40.4,12.3-49.8c-1.8-0.8-4.3-1.4-6.2-1.9
		C1596.4,1482.2,1578,1498.3,1573.1,1511"/>
	<path class="st0" d="M1465,1490.1c-5.1,26.8,30.4,42.3,56.6,24.6c22-14.8,20.7-43-10.9-50.4C1483.3,1460.3,1467.5,1477,1465,1490.1
		"/>
	<path class="st0" d="M1356.1,1470c-0.3,29.5,39.6,44.2,61,22.5c15.7-16,8.3-42.9-21.3-49.7
		C1368.7,1439.1,1356.3,1456.5,1356.1,1470"/>
	<path class="st0" d="M1251,1451.4c4.4,29.6,44.4,44.2,60.4,21.9c12-16.7,0.7-44.3-27.7-50.6
		C1257.7,1419.4,1248.9,1437.5,1251,1451.4"/>
	<path class="st0" d="M1153.5,1435c8.1,28.7,43.8,43.4,56.1,23.1c10.4-17.2-3.5-47.4-31.5-53.5
		C1154.4,1401.9,1149.4,1420.8,1153.5,1435"/>
	<path class="st0" d="M1067.5,1421.4c10.2,25.8,41,43.9,50.3,23.9c8.2-17.5-8.8-50.5-34.3-56
		C1062.9,1387.4,1061.7,1406.9,1067.5,1421.4"/>
	<path class="st0" d="M996.9,1411.3c13,27.1,37.9,41.2,43,24.3c4.9-16.1-12.9-53.2-36.1-58.1
		C987.4,1376.5,989.9,1396.7,996.9,1411.3"/>
	<path class="st0" d="M945.8,1405.4c12.1,22.7,29.5,37,33.3,27.4c4.8-12.1-16.8-58.9-35.9-62.9
		C932,1369.9,937.9,1390.6,945.8,1405.4"/>
	<path class="st0" d="M1783.6,1628.1c-10.9,7.2-24.1,16.4-25.6,18.8c0.1,0.1,0.3,0.2,0.4,0.3c10.2-2.4,63.1-37.2,62.3-41
		C1817.2,1605.9,1789.2,1624.4,1783.6,1628.1"/>
	<path class="st0" d="M1760.1,1620.7c-12,8.8-22.8,19-18.2,20.5c10.8,3.5,65-32.3,61.6-40.7c-0.2-0.4-0.8-0.8-1.2-1
		C1794,1598.3,1772.5,1611.5,1760.1,1620.7"/>
	<path class="st0" d="M1717.1,1610.1c-11.7,10.2-18.7,21.4-8.6,22.3c20.4,1.7,66.9-32.8,56.6-42c-0.6-0.6-1.7-0.9-2.5-1.2
		C1749.3,1587.1,1727.7,1600.9,1717.1,1610.1"/>
	<path class="st0" d="M1656.5,1596.5c-11.3,12.5-12,25.4,5.2,23.9c26.5-2.3,58.9-31.7,46.9-42.5c-1.5-1.4-3.6-2-5.2-2.5
		C1685.5,1572.8,1665.1,1586.9,1656.5,1596.5"/>
	<path class="st0" d="M1579.7,1580.5c-10.6,16.6,0.1,29.2,21.2,25c28.2-5.7,48.6-33,32.5-43.6c-2.3-1.5-4.9-2.2-7-2.7
		C1605.6,1556,1586.6,1569.8,1579.7,1580.5"/>
	<path class="st0" d="M1488.9,1562.6c-7.2,20.2,15.9,36.1,43.4,22.7c24.8-12.1,27.3-37.2,4.4-43.9c-0.9-0.3-2.2-0.5-3.1-0.8
		C1509.5,1537,1492.9,1551.3,1488.9,1562.6"/>
	<path class="st0" d="M1393.4,1544.6c-2.6,25.2,31.2,37.9,52.5,19.8c16.1-13.7,12.1-37.2-14.2-43.3
		C1408.7,1517.8,1394.8,1530.8,1393.4,1544.6"/>
	<path class="st0" d="M1299.4,1527.6c3.1,26.4,37.6,39,53.5,19.5c11.9-14.6,3-38.8-22.6-44.6
		C1306.6,1499.4,1298,1515.3,1299.4,1527.6"/>
	<path class="st0" d="M1210.5,1512.3c8.3,26.7,42.6,39.1,52.4,18.9c7.6-15.6-5-40.2-29.8-45.7
		C1210.9,1482.8,1206.6,1499.6,1210.5,1512.3"/>
	<path class="st0" d="M1130.1,1499.2c11.4,24.2,42.4,40.2,48.6,20c4.5-14.5-10-43.1-34.9-48.5
		C1124.1,1468.6,1123.9,1486.1,1130.1,1499.2"/>
	<path class="st0" d="M1061.5,1488.8c13.2,22.1,39.2,38.3,43.2,22.5c3.7-14.3-15.9-47.9-38.6-52.7
		C1051.2,1457.4,1052.1,1473,1061.5,1488.8"/>
	<path class="st0" d="M1008.3,1481.8c13.7,19.9,35,35.8,37.1,24.2c2.3-12.9-22.4-52-41.6-56.1
		C991.5,1449.5,999,1468.3,1008.3,1481.8"/>
	<path class="st0" d="M1710.1,1672.9c-10.4,4.8-21,9-31.4,13.8l12.4-5c16.8-7.7,39.2-17.8,55.5-26.4
		C1746.5,1655.5,1730.1,1663.7,1710.1,1672.9"/>
	<path class="st0" d="M1699.7,1668.3c-16.6,8.2-25.3,13.2-25.8,14.9c6.8,2.6,67-25.4,67.7-31.5c-0.1-0.1-0.2-0.2-0.3-0.3
		C1735.9,1650.7,1708.1,1664.2,1699.7,1668.3"/>
	<path class="st0" d="M1672.3,1660.8c-12.7,7.2-23.4,15.2-18.6,16.5c12.1,3.4,68.9-24.9,64.7-32.2c-0.3-0.4-1-0.7-1.4-0.9
		C1707.4,1642.7,1683.6,1654.4,1672.3,1660.8"/>
	<path class="st0" d="M1629.4,1650.7c-10.6,7.4-18.5,16.2-10.9,18c17.4,4.1,66.7-22.9,59.9-32.9c-0.7-1.1-2.2-1.6-3.3-1.9
		C1662,1632,1640.6,1642.9,1629.4,1650.7"/>
	<path class="st0" d="M1572.3,1638.4c-10.2,9.7-12.4,19.8,1.6,20c24.8,0.3,60-25.2,48.4-35c-1.4-1.2-3.4-1.8-4.9-2.2
		C1600.4,1618.6,1580.8,1630.4,1572.3,1638.4"/>
	<path class="st0" d="M1502.4,1624.3c-8.3,12.6-1.8,24.8,18.9,21.1c25.9-4.6,44.8-27.5,30.2-36.6c-2.1-1.3-4.5-1.9-6.5-2.4
		C1525.8,1603.4,1508.5,1615.1,1502.4,1624.3"/>
	<path class="st0" d="M1423.4,1609c-5.3,17.9,16.3,31,39.6,17.8c19.6-11.1,19.7-30.8,0.3-36.4c-0.8-0.2-1.9-0.5-2.7-0.7
		C1440.9,1586.9,1426.8,1597.5,1423.4,1609"/>
	<path class="st0" d="M1343.7,1594.3c0.5,20.1,27,33.4,44.2,16.5c12.4-12.1,7.9-32.2-14.9-37.4
		C1353.7,1570.7,1343.5,1582.1,1343.7,1594.3"/>
	<path class="st0" d="M1266.8,1580.7c6.2,20.9,34.5,34.3,44.9,16.3c7.6-13.1-2.3-34-24.1-38.9
		C1269.7,1555.8,1263,1567.8,1266.8,1580.7"/>
	<path class="st0" d="M1195.4,1568.6c10.8,20.5,38.1,34.2,43.4,17.5c4-12.6-8.8-36.9-31.5-41.8
		C1190.8,1542.4,1188.3,1555.2,1195.4,1568.6"/>
	<path class="st0" d="M1132.4,1558.7c13.4,18.9,38.1,33.1,40.8,19.9c2.6-12.6-16.7-41.4-38.1-46
		C1119.4,1531.2,1124,1547,1132.4,1558.7"/>
	<path class="st0" d="M1080.6,1551.2c14.7,17.2,36.7,31.3,37.8,21.7c1.3-11-25.3-45.4-44.1-49.4
		C1063,1522.9,1068.8,1537.4,1080.6,1551.2"/>
	<path class="st0" d="M1624.3,1702.2c-30,9.1-30,9.1-30.8,9.5c9.6,1.2,71.8-19.4,72.2-21.5
		C1663.4,1690.3,1663.4,1690.3,1624.3,1702.2"/>
	<path class="st0" d="M1609,1697.4c-23.6,8.1-25.1,9.7-25.8,10.4c0.1,0.1,0.2,0.3,0.3,0.5c11.6,1.7,71.2-17.3,70-22.4
		c-0.1-0.1-0.3-0.2-0.5-0.3C1647.5,1684.7,1626,1691.5,1609,1697.4"/>
	<path class="st0" d="M1581.1,1690.4c-5.4,2.3-22.8,9.9-19.6,11.9c8.1,5.2,66.7-14.9,66.1-22.6c-0.1-0.8-0.9-1.1-1.7-1.4
		C1614.4,1676.6,1584.5,1689,1581.1,1690.4"/>
	<path class="st0" d="M1541.6,1681.6c-10.3,5.7-17.8,12.2-11.4,13.7c16.2,3.7,63.8-16.6,57.9-24.6c-0.7-0.9-2.1-1.3-3.1-1.6
		C1572.1,1667,1550.9,1676.4,1541.6,1681.6"/>
	<path class="st0" d="M1491.5,1671.2c-8.3,6.9-11.4,14.4-1.4,15.5c17.6,1.9,54.9-16.5,47-26.2c-1.3-1.7-3.3-2.2-5.3-2.7
		C1516.8,1655.4,1499.5,1664.5,1491.5,1671.2"/>
	<path class="st0" d="M1432.2,1659.4c-6.7,10.6-0.1,20.3,18.2,16.4c20.1-4.3,36.2-21.2,22.9-29c-1.9-1.1-4-1.6-5.7-2
		C1452.1,1642.5,1437.8,1650.6,1432.2,1659.4"/>
	<path class="st0" d="M1369.7,1647.7c-2.3,15.4,16.2,25.3,33.2,12.9c12.7-9.3,12.5-24.9-5.9-29.3
		C1381.2,1629.1,1371.1,1638.1,1369.7,1647.7"/>
	<path class="st0" d="M1308.3,1636.5c4.4,17.3,27.1,27.3,36.1,11.6c5.9-10.3-0.6-25.9-17.7-29.7
		C1311.8,1616.5,1305.6,1626.1,1308.3,1636.5"/>
	<path class="st0" d="M1250.1,1626.5c8.8,15.1,31.1,28.1,35.5,14.2c3.2-10.2-7.5-29.9-26.3-34.1
		C1245.3,1605,1243.6,1615.4,1250.1,1626.5"/>
	<path class="st0" d="M1197.4,1617.9c12,14.1,34.4,27.8,35.4,16.5c0.9-10.4-16.9-34.1-35.4-38.1
		C1185,1595.1,1187.7,1606.6,1197.4,1617.9"/>
	<path class="st0" d="M1152.4,1611.1c14.8,14,35.9,26,35.3,18.3c-0.7-8.5-26.7-37.7-44.3-41.4c-9.9-0.7-2.7,10.4,2.5,16.4
		C1147.6,1606.3,1150.3,1609.1,1152.4,1611.1"/>
	<path class="st0" d="M1539.1,1722.4c-11.4,1.6-22.8,2.6-34.2,4c0.4,0,7.4-0.2,25.5-2.4l39.3-6.1c5.6-1.1,9.7-1.9,10.7-2.2
		C1566.5,1717.2,1552.9,1720.5,1539.1,1722.4"/>
	<path class="st0" d="M1533.2,1719.8c-10.3,1.6-20.9,1.3-30.9,4.9c3.9,1.4,72.5-6.9,74.6-11.3
		C1575.4,1713.1,1575.4,1713.1,1533.2,1719.8"/>
	<path class="st0" d="M1518,1715.7c-22.1,4.4-24.7,5-26.2,5.7c0.1,0.1,0.1,0.2,0.2,0.3c10.1,1.5,66.1-6.5,70.5-12.3
		c-0.2-0.2-0.4-0.4-0.6-0.5C1557.2,1708.2,1544,1710.5,1518,1715.7"/>
	<path class="st0" d="M1494.4,1710.2c-18.1,4.9-19.7,6.2-20.4,6.7c0,0.2,0,0.4,0.1,0.5c9.8,3.5,67-9,63.7-14
		c-0.2-0.4-0.9-0.5-1.3-0.6C1530.3,1701.8,1516.1,1704.3,1494.4,1710.2"/>
	<path class="st0" d="M1463.1,1703.4c-4,1.6-16.8,7-13.2,8.6c10.2,4.4,58.2-9.5,54.1-15.7c-0.4-0.7-1.6-1-2.5-1.3
		C1489.3,1693.2,1467.3,1701.7,1463.1,1703.4"/>
	<path class="st0" d="M1424.8,1695.7c-4.6,3.2-10.6,9.1-4.1,10.4c13,2.7,47.5-10.1,41.4-17.9c-1-1.3-2.6-1.7-4.2-2.1
		C1445.1,1684.1,1430.6,1691.5,1424.8,1695.7"/>
	<path class="st0" d="M1381.6,1687.3c-4.2,7.7-0.2,15.5,15.7,10.7c15.4-4.7,22.7-15.3,13.9-20.4c-1.5-0.8-3.1-1.2-4.4-1.5
		C1393.8,1674.2,1384.6,1681.8,1381.6,1687.3"/>
	<path class="st0" d="M1338.2,1679.3c1.5,12.6,16.5,18.8,25.5,7.2c5.6-7.3,2.8-17.5-9.3-20.3
		C1343,1664.7,1337.2,1671.7,1338.2,1679.3"/>
	<path class="st0" d="M1296.2,1671.9c6.4,10,23,21.1,25.7,9.3c1.8-7.5-4.9-21-19-24.2C1292.1,1655.7,1291,1663.7,1296.2,1671.9"/>
	<path class="st0" d="M1257.4,1665.4c8.9,8.6,27.3,20.1,27.5,13.1c0.2-6.2-14.3-26.2-30.2-29.7c-9.6-1-5.4,7.2-1.9,11.6
		C1253.9,1661.8,1255.8,1663.9,1257.4,1665.4"/>
	<path class="st0" d="M1223.1,1660c13,9.6,31.5,19.2,30.4,14.6c-1.1-4.3-27-29.5-42.1-32.8c-5.8-0.5-3.1,4-0.9,6.7
		C1211.7,1650,1215.4,1654.2,1223.1,1660"/>
	<path class="st0" d="M1447.7,1728.3c-14.7-0.2-24.3-0.8-35.4-1.5c0.1,0,15.1,1.4,37.1,1.6c11.9-0.2,27.7-0.2,39.6-0.8
		C1488.7,1727.6,1471.3,1728.7,1447.7,1728.3"/>
	<path class="st0" d="M1447.2,1727.4c-1.2,0-1.2,0-34.3-1.1c13.8,2.2,73.9,2.1,77.8,0.5C1476.2,1726,1461.7,1727.5,1447.2,1727.4"/>
	<path class="st0" d="M1441.6,1725.6c-10.5,0.1-21-0.5-31.5-0.3c12.9,2,72.5,2.1,74.9-0.7c-1.5-0.2-4.7-0.2-15.7,0.2
		C1461.6,1725.2,1452,1725.5,1441.6,1725.6"/>
	<path class="st0" d="M1431.3,1723c-8.9,0.4-17.9,0.2-26.8,0.7c8,1.9,61.4,1.5,68.3-2c-0.1-0.1-0.2-0.2-0.3-0.3
		C1471.9,1721.3,1471.9,1721.3,1431.3,1723"/>
	<path class="st0" d="M1416.6,1719.7c-7.1,0.7-14.2,0.6-21.3,1.9c4.8,1.9,52.9,0.4,59-4c0-0.1-0.1-0.3-0.1-0.5
		c-0.2-0.1-0.4-0.1-0.5-0.2C1449.8,1716.4,1449.8,1716.4,1416.6,1719.7"/>
	<path class="st0" d="M1397.9,1715.8c-13.6,2.9-13.6,2.9-14.3,3.1c0,0.1-0.1,0.2-0.1,0.2c7,2.2,48.1-2.4,46.9-6.7
		c-0.1-0.4-0.9-0.6-1.5-0.8C1422.6,1710.8,1411.2,1713,1397.9,1715.8"/>
	<path class="st0" d="M1375.8,1711.5c-5.4,2.8-7.5,4.4-6.3,4.9c5.6,2.2,35.4-4.1,32.4-9.3c-0.5-0.8-1.6-1.1-2.6-1.3
		C1390.4,1704.5,1379.9,1709.3,1375.8,1711.5"/>
	<path class="st0" d="M1352.4,1707c-2.5,7.8,4.4,8.1,12.6,3.9c8.1-4.2,7.9-9.5,2.4-11.2c-0.3-0.1-0.7-0.2-1-0.2
		C1359.1,1698.5,1353.8,1702.5,1352.4,1707"/>
	<path class="st0" d="M1329.3,1702.9c2.4,3.5,12.5,13.7,14.2,3.3c0.8-4.9-2.7-11-9.9-12.7
		C1326.6,1692.6,1325.7,1697.6,1329.3,1702.9"/>
	<path class="st0" d="M1307.5,1699.1c6.3,4.6,18.4,10.9,17.8,8.5c-0.4-1.8-11.8-17.1-23.1-19.6c-5.7-0.6-2.3,4-1.6,4.9
		C1301.6,1694.2,1303.7,1696.3,1307.5,1699.1"/>
	<path class="st0" d="M1287.7,1695.9c9.7,5.2,21.5,9.9,23.5,10.1c0-0.1,0-0.2,0-0.2c-0.8-0.8-28-20.3-38-22.5
		c-0.7-0.1-3-0.3-0.9,2.2C1273.2,1686.4,1276.7,1690,1287.7,1695.9"/>
	<path class="st0" d="M1354.9,1719.6c-1.6-0.3-4.2-0.7-9.3-1.7c12.7,2.5,25.4,4.5,38.1,6.1c8.1,1,12.9,1.4,13,1.4
		C1379.5,1723.4,1370.9,1722.4,1354.9,1719.6"/>
	<path class="st0" d="M1355.1,1719.6c-1.5-0.2-4.3-0.7-9.5-1.7c31.7,5.9,53,7.5,53.1,7.5C1361.4,1720.6,1361.4,1720.6,1355.1,1719.6
		"/>
	<path class="st0" d="M1354.8,1719.5c-1.4-0.2-4.1-0.7-9.2-1.5c32.4,5.8,52.2,6.9,52.3,6.9
		C1383.5,1722.6,1369.1,1721.7,1354.8,1719.5"/>
	<path class="st0" d="M1354,1719.3c-1.4-0.2-3.8-0.6-8.5-1.3c0,0,0,0,0,0c30,5.1,48.7,6,48.8,5.9
		C1381,1721.7,1367.4,1721.2,1354,1719.3"/>
	<path class="st0" d="M1352.8,1719c-1.4-0.2-3.3-0.4-7.3-1c26.3,4.2,41.8,4.6,43,4.5c0,0,0,0-0.1,0
		C1376.6,1720.6,1364.7,1720.6,1352.8,1719"/>
	<path class="st0" d="M1351.2,1718.6c-1-0.1-2.6-0.3-5.7-0.7c0,0,0,0,0,0c21.4,3.1,33.4,2.9,34.8,2.8c0,0,0-0.1,0-0.1
		c-1.2-0.2-2.8-0.3-7.5-0.5C1365.6,1719.8,1359,1719.5,1351.2,1718.6"/>
	<path class="st0" d="M1349.3,1718.2c-0.6,0-1.7-0.1-3.7-0.3c15,1.9,24,1.3,24.9,0.7c-0.1,0-0.2-0.1-0.3-0.2
		c-1.2-0.2-2.9-0.2-7.4-0.1C1358,1718.5,1353.9,1718.5,1349.3,1718.2"/>
	<path class="st0" d="M1347.1,1717.8c-0.3,0-0.7,0.1-1.6,0.1c8.1,0.6,13.3-0.4,13.5-1.4c-0.1-0.2-0.2-0.2-0.7-0.3
		C1354.4,1715.7,1350.9,1717.4,1347.1,1717.8"/>
	<path class="st0" d="M1344.9,1717.4c0.1,0.1,0.3,0.2,0.6,0.5c3.1-1,3-3,1.3-3.8c-0.2-0.1-0.5-0.2-0.7-0.2c-2.4-0.3-3,1.4-1.7,3
		C1344.5,1717,1344.7,1717.3,1344.9,1717.4"/>
	<path class="st0" d="M1342.8,1717c0.5,0.2,1.2,0.4,2.8,0.9c-4-1.6-7-5.2-11.4-6.2c-0.4,0-0.5,0-0.7,0.1
		C1333.4,1712.8,1337.1,1715.1,1342.8,1717"/>
	<path class="st0" d="M1340.8,1716.7c0.8,0.2,2.1,0.6,4.7,1.2c-5.7-1.5-9.8-3.2-15.9-5.7c-4.1-1.7-5.5-2.2-6.7-2.5
		c-0.1,0-0.2,0-0.3,0C1322.8,1710.6,1330.7,1713.9,1340.8,1716.7"/>
	<path class="st0" d="M860.7,1266.1c-3.6-14.4-10.6-49.3-12.6-62.4c3.6,19.3,8.4,45.2,13.1,64.3
		C861.1,1267.4,860.9,1266.6,860.7,1266.1"/>
	<path class="st0" d="M879,1324.8c1.6,4.4,10,26.8,13.5,30.2c0.2,0,0.4-0.1,0.5-0.2c1.1-7.9-21.2-69.3-25.6-70.6
		C865.9,1289.1,878.5,1323.4,879,1324.8"/>
	<path class="st0" d="M918.9,1404.2c10.3,18.7,20.9,32,22.8,28.4c3.1-5.9-24-63.1-35.3-65.6C901.7,1368.3,910.9,1389.5,918.9,1404.2
		"/>
	<path class="st0" d="M931.9,1434.4c-7-11.6-29.6-54.1-34.2-64.1C907.6,1389.7,920.9,1415.6,931.9,1434.4
		C931.9,1434.4,931.9,1434.4,931.9,1434.4"/>
	<path class="st0" d="M974.1,1478.7c14.1,19.1,29.4,31.9,29.7,25c0.5-9.5-29.6-55.5-43.6-58.5C954,1445.9,962.5,1463.1,974.1,1478.7
		"/>
	<path class="st0" d="M962.8,1479.9c9.1,12.2,19.7,25.1,21.8,25.7c-0.2-4.1-40.6-59.5-44.1-60.4
		C940.5,1448.8,955.5,1470.1,962.8,1479.9"/>
	<path class="st0" d="M1043,1546.8c14.5,15.3,33.6,29,33.9,22.7c0.4-8.1-33.5-48.6-48.9-51.9
		C1020.5,1517.8,1029.7,1532.8,1043,1546.8"/>
	<path class="st0" d="M1023.1,1545.9c11.5,11.6,26,24,28.3,23.1c1-4.9-44.4-52-51.7-53.6c-0.1,0-0.3,0.1-0.4,0.1
		C998.3,1518.5,1010.9,1533.6,1023.1,1545.9"/>
	<path class="st0" d="M1045,1570.6c-8.8-9.1-18.1-17.7-27-26.8c-8.6-8.8-16.8-17.9-25.4-26.6c0,0,0,0,0,0l0,0l3.8,4.4
		c14.2,14.9,33.3,34.7,48.3,48.8C1044.8,1570.4,1044.9,1570.5,1045,1570.6"/>
	<path class="st0" d="M1117.5,1606.5c14.9,12.3,35.3,24.4,34.5,19.4c-0.8-5.6-36.6-40.8-52-44c-7.1-0.2,3.1,11.1,5.3,13.4
		C1108.5,1598.7,1112.9,1602.7,1117.5,1606.5"/>
	<path class="st0" d="M1094.9,1604.4c12.8,9.8,29.3,20.4,32.2,20c1.5-3.5-49.4-44.1-57.4-45.8
		C1065.6,1579.2,1079.6,1592.7,1094.9,1604.4"/>
	<path class="st0" d="M1087.4,1605.2c12.5,9.4,24.7,17.5,28.1,19.1c-0.3-1.8-59.1-45.7-59.7-45.8
		C1057,1580.9,1072.3,1593.9,1087.4,1605.2"/>
	<path class="st0" d="M1195.1,1656c13.5,8.6,30.6,16.9,32.7,16c0.2-2.7-39.9-32.8-52.7-35.5c-1,0-4-0.2,0.7,4.8
		C1179.4,1645.1,1186.5,1650.5,1195.1,1656"/>
	<path class="st0" d="M1174.8,1653.6c15.2,8.7,31.4,16.2,33.5,16c-1.3-2.7-53.3-35.1-60.8-36.7c-0.3,0-0.6,0.1-0.8,0.3
		C1147.1,1635.8,1159.4,1644.8,1174.8,1653.6"/>
	<path class="st0" d="M1164.2,1653.2c14.9,8.1,29.9,15.1,32.3,15.6c-1.1-1.5-63.1-36.6-65.7-37.1
		C1130.9,1633.3,1147.4,1644,1164.2,1653.2"/>
	<path class="st0" d="M1173.6,1659.7c10.3,5.3,18.1,9,20,9.8c-11.1-6.6-22.9-11.7-34.1-17.9c-11-6.1-21.6-12.8-32.6-18.9
		c0,0-0.1,0-0.1,0c0.9,0.6,1.5,1,5.6,3.6l10.4,6.3l28.1,15.7C1171.7,1658.7,1172.8,1659.2,1173.6,1659.7"/>
	<path class="st0" d="M1270.8,1693.3c12.4,5.6,25.4,10.1,28.3,10.8c-0.6-1.2-44.2-23.4-51-24.8c-0.3,0-0.7,0-0.9,0.1
		C1246.8,1680.8,1255.8,1686.6,1270.8,1693.3"/>
	<path class="st0" d="M1257.6,1691.5c15.3,6.1,29.7,10.7,32,11.2c-0.3-0.2-57.1-25.3-61.8-26.3c-0.1,0-0.3,0-0.4,0
		C1227.9,1678.3,1241.8,1685.2,1257.6,1691.5"/>
	<path class="st0" d="M1249,1690.8c17.1,6.4,32.2,10.9,33.9,11.2c-0.4-0.2-67-26.7-69.4-27.2
		C1215.2,1676.8,1232.1,1684.4,1249,1690.8"/>
	<path class="st0" d="M1246,1691c17,6.1,30.7,10.2,33.5,10.9c-11.6-5.2-24.1-8.1-36-12.6c-12-4.5-23.8-9.8-35.9-14.3
		c-0.3-0.1-0.6-0.2-0.9-0.3C1208.8,1676.1,1225.2,1683.5,1246,1691"/>
	<path class="st0" d="M1248.5,1692.2c17.9,6.4,31.1,10.2,31.7,10.3c-36.3-11.9-48.6-16-72.2-26.5l22.6,9.4l6.1,2.3
		C1240.8,1689.4,1244.7,1690.9,1248.5,1692.2"/>
	<path class="st0" d="M1265.2,1697.7c7.5,2.6,11.6,3.8,18.9,6.1c-0.2,0-17-4.8-37.8-12.4c4.8,1.6,11.3,3.8,16.2,5.4
		C1263.4,1697,1264.4,1697.4,1265.2,1697.7"/>
	<path class="st0" d="M1287.6,1704.3c3.5,1.2,3.5,1.2,3.7,1.3c-0.4-0.1-7.6-2.1-16.8-5.1c3.6,1.1,8.4,2.5,12.1,3.5
		C1286.9,1704.1,1287.3,1704.2,1287.6,1704.3"/>
	<path class="st0" d="M1339.1,1716.4c1.1,0.3,2.9,0.7,6.5,1.5c-9.8-2.3-16.8-4.6-25.6-7.5c-4.3-1.4-5.8-2-7-2.2c-0.1,0-0.1,0-0.2,0
		C1314.3,1709.2,1324.7,1712.9,1339.1,1716.4"/>
	<path class="st0" d="M1337.7,1716.2c1.3,0.3,3.5,0.8,7.9,1.7c-14.8-3.2-25.9-6.5-34.8-9.2c-5-1.5-5.6-1.6-6.3-1.8
		C1306.6,1708.1,1320.3,1712.3,1337.7,1716.2"/>
	<path class="st0" d="M1336.6,1716.1c1.3,0.3,4,0.8,8.9,1.8c-16-3.3-31.5-8.5-47.5-11.8C1299.1,1706.6,1313.9,1711.3,1336.6,1716.1"
		/>
	<path class="st0" d="M1336.1,1716.1c1.4,0.3,4.2,0.9,9.4,1.8c-17.3-3.3-34.1-8.6-51.4-12.1
		C1295.7,1706.4,1312.2,1711.2,1336.1,1716.1"/>
	<path class="st0" d="M1336.1,1716.2c1.6,0.3,4.2,0.8,9.5,1.8c-17.6-3.3-34.8-8.2-52.3-11.8
		C1293.4,1706.1,1310.8,1711.2,1336.1,1716.2"/>
	<path class="st0" d="M1336.6,1716.3c1.2,0.2,4,0.7,9,1.6c-3.2-0.6-12.9-2.3-24.7-4.9c-8.6-1.9-17.1-4.3-25.8-6.2
		C1296.9,1707.4,1314,1712.1,1336.6,1716.3"/>
	<path class="st0" d="M1337.5,1716.6c1.3,0.2,3.6,0.6,8,1.4c0,0,0,0,0,0c-24.1-4.1-41.3-8.6-46-9.9c0,0,0,0,0,0
		C1311.4,1711.1,1321.7,1713.7,1337.5,1716.6"/>
	<path class="st0" d="M1338.8,1716.9c1.1,0.2,3,0.5,6.7,1.1c-23.8-3.8-39.2-8.3-39.4-8.4c0,0,0.1,0,0.1,0
		C1330.6,1715.5,1330.6,1715.5,1338.8,1716.9"/>
	<path class="st0" d="M1340.6,1717.2c0.8,0.1,2.2,0.3,5,0.7c-16.3-2.3-26.8-5.3-29.7-6.1l6.9,1.7
		C1327.6,1714.7,1333.4,1716.1,1340.6,1717.2"/>
	<path class="st0" d="M1342.6,1717.6c0.5,0.1,1.3,0.2,2.9,0.3c-6.2-0.7-10.6-1.6-13.7-2.4c2,0.4,4.6,1,6.6,1.4l0.6,0.1
		C1339.9,1717.2,1341.2,1717.5,1342.6,1717.6"/>
	<path class="st0" d="M1344.8,1718.1c0.1,0,0.3,0,0.7-0.1c-2.2-0.1-3.5-0.3-4.5-0.5l1,0.2c0.6,0.1,1.4,0.3,2.1,0.4
		C1344.3,1718,1344.5,1718.1,1344.8,1718.1"/>
	<path class="st0" d="M1347,1718.5c-0.2-0.1-0.7-0.2-1.5-0.5c0.1,0.3,0.2,0.4,0.3,0.4c0.8,0.1,1.8,0.3,2.6,0.5l0.3,0.1
		C1348.4,1718.8,1347.8,1718.7,1347,1718.5"/>
	<path class="st0" d="M1349.1,1718.8c-0.6-0.1-1.6-0.4-3.6-0.9c2.4,0.8,3.8,1,5.1,1.3l1.1,0.2c0.6,0.1,1.4,0.2,2,0.3
		C1351.6,1719.4,1349.6,1718.9,1349.1,1718.8"/>
	<path class="st0" d="M1351,1719.1c-0.9-0.2-2.5-0.5-5.4-1.2c0,0,0,0,0,0c3.7,0.9,6.8,1.6,10.5,2.2c1.1,0.2,2.6,0.4,3.7,0.6l0.1,0
		C1357.5,1720.3,1354.9,1719.9,1351,1719.1"/>
	<path class="st0" d="M1352.6,1719.4c-1.4-0.3-3.2-0.6-7.1-1.4c6.2,1.4,11.1,2.3,17.3,3.3l2.1,0.3l3.3,0.5
		C1362.8,1721.2,1357.7,1720.4,1352.6,1719.4"/>
	<path class="st0" d="M1353.9,1719.5c-1.3-0.2-3.8-0.7-8.3-1.6c11.4,2.4,19.5,3.6,28.1,4.8c2.4,0.3,5.6,0.7,8,1
		C1377.3,1723.3,1367.3,1722,1353.9,1719.5"/>
</g>
<path class="st1" d="M1579.3,512.2c20.9,4.3,34.2,8.2,34.3,8.2c-15.5-3.1-30.7-7.6-46.3-10.6c0,0,0,0,0,0
	C1570.3,510.4,1574.5,511.2,1579.3,512.2"/>
<path class="st1" d="M1579.2,512.1c20.6,4.1,34.8,8.1,34.9,8.1c-34.1-8-34.1-8-46.9-10.3c0,0,0,0,0,0
	C1570.3,510.4,1574.4,511.1,1579.2,512.1"/>
<path class="st1" d="M1578.5,511.9c18.5,3.5,33,7.4,33.6,7.6c-13.9-3.4-25.9-6.3-44.8-9.6c0,0,0,0,0,0
	C1570.1,510.3,1574,511,1578.5,511.9"/>
<path class="st1" d="M1577.2,511.6c12.9,2.4,21.9,4.6,30.5,6.8c-0.2,0-17.3-4.6-40.5-8.5c0,0,0,0,0,0
	C1569.8,510.3,1573.2,510.8,1577.2,511.6"/>
<path class="st1" d="M1575.4,511.2c6.7,1.2,6.7,1.2,25.9,5.7c-1.8-0.5-15.8-4.2-34.1-7c0,0,0,0,0,0
	C1569.4,510.2,1572.2,510.6,1575.4,511.2"/>
<path class="st1" d="M1573.2,510.7c5.3,0.9,9.5,1.9,12,2.4c1.9,0.4,4.4,1,6.3,1.5c-6.9-1.8-15.7-3.6-24.2-4.7c0,0,0,0,0,0
	C1568.8,510,1570.8,510.3,1573.2,510.7"/>
<path class="st1" d="M1570.5,510.2c0.4,0.1,1.1,0.2,2.5,0.4l1.4,0.3l3.6,0.7c-1.8-0.4-5.6-1.2-10.7-1.7c0,0,0,0,0,0
	C1568.1,509.9,1569.2,510,1570.5,510.2"/>
<path class="st2" d="M1567.7,509.6c0,0,0.1,0,0.3,0c0.8,0.2,2,0.4,2.8,0.5l0.1,0c-1.6-0.3-2.9-0.3-3.6-0.3
	C1567.4,509.8,1567.5,509.7,1567.7,509.6"/>
<path class="st2" d="M1564.9,509.1c-0.2-0.1-0.8-0.2-1.6-0.4l1,0.2c0.5,0.1,1.2,0.2,1.8,0.3c0.6,0.1,0.9,0.3,1.2,0.6c0,0,0,0,0,0
	C1566.7,509.6,1565.9,509.4,1564.9,509.1"/>
<path class="st2" d="M1562.3,508.7c-1.8-0.4-3.2-0.6-4.2-0.8c0.8,0.1,2,0.3,2.8,0.5l0.3,0c2.8,0.5,4.7,1,6,1.4c0,0,0,0,0,0
	C1566,509.5,1564.3,509.1,1562.3,508.7"/>
<path class="st3" d="M1560,508.3c-3.7-0.7-6.5-1.2-8-1.4l1.2,0.2c0.8,0.1,1.8,0.3,2.6,0.4c2.7,0.5,6.3,1.1,11.6,2.4c0,0,0,0,0,0
	C1565.4,509.4,1562.9,508.9,1560,508.3"/>
<path class="st3" d="M1558,508c-7.2-1.3-12.9-2.2-14.8-2.4c1.4,0.2,3.3,0.5,4.7,0.7l0.6,0.1c2.4,0.4,9.7,1.5,18.8,3.5c0,0,0,0,0,0
	C1564.9,509.4,1561.7,508.7,1558,508"/>
<path class="st3" d="M1556.4,507.8c-6.3-1.1-16-2.7-26.8-4c1.8,0.2,4.1,0.5,5.9,0.7c7.7,1,18.3,2.5,31.7,5.3c0,0,0,0,0,0
	C1564.2,509.3,1560.8,508.6,1556.4,507.8"/>
<path class="st3" d="M1555.5,507.7c-14.5-2.5-25.1-3.8-33.7-4.8c2.1,0.2,21.2,2.2,45.5,6.9C1564.1,509.3,1560.2,508.5,1555.5,507.7"
	/>
<path class="st3" d="M1555.1,507.8c-11-1.8-11-1.8-35.3-4.8c0.2,0,19.8,1.7,47.4,6.9c0,0,0,0,0,0
	C1564,509.3,1560.1,508.6,1555.1,507.8"/>
<path class="st3" d="M1555.5,507.9c-11.7-1.8-23.6-2.6-35.3-4.5c0.2,0,19,1.4,47,6.5C1564.1,509.3,1560.3,508.6,1555.5,507.9"/>
<path class="st1" d="M1667,537.9c14,5.3,25.8,10.6,29.1,12.7c-0.1,0.1-0.2,0.1-0.3,0.2c-2.1-0.7-4.3-1.5-15.4-6
	c-13.7-5.9-27.6-11.2-41.8-16c-3.5-1.2-6.1-2.1-9.3-3.2c-3.3-1.1-3.6-1.2-3.7-1.3C1628.9,525.1,1646.9,530.3,1667,537.9"/>
<path class="st4" d="M1669.1,537.5c17.5,6.4,29.9,12,32.2,13.1c-0.2,0-0.5-0.1-0.7-0.2c-13.3-4.8-26.3-10.5-39.6-15.3
	c-10.9-3.9-22.2-6.7-33-11C1628.1,524.3,1645.6,528.9,1669.1,537.5"/>
<path class="st4" d="M1661.9,534.7l35.1,13.6c-26.5-11.3-43.8-16.6-70-24.7c0.1,0,11.5,3,29.7,9.3L1661.9,534.7"/>
<path class="st1" d="M1648.1,530.1c-13.4-4.4-22.7-7-25.2-7.7c4.3,1.3,8.6,2.6,12.9,4C1639.5,527.4,1644.4,528.9,1648.1,530.1"/>
<path class="st1" d="M1623.1,522.7c-1.9-0.6-5.5-1.6-7.2-2c0,0-0.1,0-0.1,0c0.2,0.1,0.3,0.1,1,0.3L1623.1,522.7"/>
<path class="st5" d="M1462.8,499.4c-19.3-0.3-33,0.5-33.2,0.5c0.5,0,0.5,0,1.7,0l32.5-0.5c25.9,0.3,42.5,2.1,42.6,2.1
	C1490,500.4,1480.1,499.7,1462.8,499.4"/>
<path class="st5" d="M1462.8,500.3c-11.7-0.1-23.5,0.6-35.2,0.4c5.9-2,63.4-1.1,77.9,1.2C1491.2,501.4,1477,500.4,1462.8,500.3"/>
<path class="st4" d="M1742.6,575.6c9.9,5.8,15.1,9.6,17,11c-14.1-9-28.7-17.4-43.6-25.1C1719.4,563.2,1730,568.2,1742.6,575.6"/>
<path class="st4" d="M1751.5,575.7c14.5,8.1,26.2,15.7,27.7,17.5c-2.2,0.1-66.2-36-66.7-36.4c0,0,0-0.1,0-0.1
	C1714.8,557.2,1732.8,565.3,1751.5,575.7"/>
<path class="st4" d="M1751.8,574.8l29.1,17c-19-11.3-19-11.3-67.1-36.1c0.7,0.3,2.9,1.3,9.1,4.2L1751.8,574.8"/>
<path class="st5" d="M1371.2,505.6c-11.1,1.5-22.2,3.6-33.3,5.3c1.1-0.3,1.1-0.3,3.6-0.7l30.1-5l16.9-2.1
	c17.7-1.9,25.1-2.2,25.1-2.2C1399.5,502.6,1385.3,503.7,1371.2,505.6"/>
<path class="st4" d="M1822,624.9c11.2,8.9,22.1,18.9,21.1,21c-1.3,0.3-4.8-1-20.6-12.8c-8.9-7.6-18-14.9-27.4-21.9
	c-9.2-7.7-10.4-9.2-11-10.3c0.1-0.1,0.3-0.3,0.4-0.4C1788.7,601.4,1806.3,612.5,1822,624.9"/>
<path class="st4" d="M1827.2,623.7c12.8,9.7,24.1,19.2,26.3,21.7c-2.3-0.6-60.2-44.8-60.5-45.1
	C1796.1,601.5,1811.2,611.5,1827.2,623.7"/>
<path class="st4" d="M1876,683.1c5.4,6,8.5,10.5,10.2,13.2c-9.4-10.9-19.2-21.4-29.4-31.5C1865.8,672.1,1872.7,679.4,1876,683.1"/>
<path class="st4" d="M1892.8,683.4c10,10.3,20,22.2,19.8,24.8c-3.1,1.6-52.4-48-52.8-53c0.1,0,0.2-0.1,0.2-0.1
	C1863.6,655.9,1879.2,669.4,1892.8,683.4"/>
<path class="st4" d="M1902.6,691.2l10.9,11.8c-13.2-14.6-34-35.3-48.3-48.1C1876.5,665.7,1891.9,679.8,1902.6,691.2"/>
<path class="st4" d="M1943.3,751.1c10.8,15.5,15.7,27.5,11.1,27.3c-1.8-0.1-6.7-2.3-18.8-16.7c-6.4-9.9-13.1-19.5-20.1-29
	c-5.3-9.7-6.5-14.1-3.8-14.4C1918.1,719.7,1933.1,736.4,1943.3,751.1"/>
<path class="st4" d="M1958.7,759.7c3.8,5.4,10.4,15,11.6,17.9c-4.5-1.4-44.7-59.3-44.7-59.8c2.4,1.5,11.1,12.5,16.1,18.9
	L1958.7,759.7"/>
<path class="st4" d="M1973.4,825c3.4,7.3,4.6,12.2,5.1,14.2c-5.5-11.9-11.4-23.7-17.7-35.2C1962.7,806.6,1968.4,814.2,1973.4,825"/>
<path class="st4" d="M1996.7,825.5c9.6,18.4,14,32.1,9.8,30.4c-8.5-3.4-39.5-61.6-34.9-65.6c0.1-0.1,0.3-0.1,0.5-0.2
	C1976.8,791.3,1989.3,811.5,1996.7,825.5"/>
<path class="st4" d="M2008.7,844c-7.3-14.8-17.9-34.1-26.3-48.2C1990.3,810.2,2001.3,829.3,2008.7,844"/>
<path class="st4" d="M2024.1,906.9c7,21.4,6.3,35.5-1.6,30.9c-4.6-2.7-10-11.4-12.5-16.1c-4-13.1-8.4-26-13.1-38.7
	c-0.7-4.3-1.7-14.3,3.4-14.9C2008.9,869.9,2019.4,892.8,2024.1,906.9"/>
<path class="st4" d="M2041.9,926.4c2.2,6.9,2.9,9.6,3.1,11.4c-0.1,0.1-0.2,0.2-0.3,0.2c-4.5-5.6-26.9-66.9-25.8-70.5
	c0.7,0.6,1.3,1.2,5.6,11.4C2029.7,893.1,2037.2,911.9,2041.9,926.4"/>
<path class="st4" d="M2030.1,991.9c1.7,11.2,0.6,18.2,0.2,20c-2.4-16.2-5.5-32.1-9.1-47.9C2022.3,965.9,2027.8,976.4,2030.1,991.9"
	/>
<path class="st4" d="M2056.8,992.3c4.1,21.3,4.2,35.9,0.1,34.1c-9.2-4.2-22.5-69.3-15.2-74.1c0.2-0.1,0.4-0.1,0.6-0.2
	C2047.5,953.4,2054,977.4,2056.8,992.3"/>
<path class="st4" d="M2060.3,998.3c-1.3-6.7-2.7-13.6-5.2-24.4L2060.3,998.3"/>
<path class="st4" d="M2057.7,1082.5c0.6,25-5.8,40.1-13.8,32.4c-3.4-3.3-5.6-9.8-6.5-12.3c-0.1-16.9-0.9-33.8-2.3-50.4
	c3.2-11.9,7-12.3,8.8-12.5C2053.2,1041.8,2057.3,1067.1,2057.7,1082.5"/>
<path class="st4" d="M2071.1,1106.7c0,6.2-0.1,7.8-0.4,9.4c-0.1,0.1-0.3,0.2-0.4,0.2c-3.4-7-7.1-72.5-4.3-77
	c0.5,0.7,0.9,1.1,1.8,9.4C2068.9,1066.1,2070.9,1089.2,2071.1,1106.7"/>
<path class="st4" d="M2037.4,1173.8c-1.7,12.2-5.3,19.7-6,21.1c2.3-17,3.9-33.9,4.9-50.8C2036.9,1146.2,2039.7,1157.3,2037.4,1173.8
	"/>
<path class="st4" d="M2066.1,1174.3c-2.3,21.2-7.1,40.2-11.2,35.3c-6.5-7.9-2.1-74.8,8.7-78.1
	C2068.7,1132.8,2067.9,1157.8,2066.1,1174.3"/>
<path class="st3" d="M1556.4,508.2c-11-1.6-22.2-2.1-33.3-3.9c1.9,0,20.2,1.5,44.1,5.6c0,0,0,0,0,0
	C1564.7,509.4,1560.8,508.8,1556.4,508.2"/>
<path class="st3" d="M1557.9,508.5c-9.8-1.3-19.8-1.5-29.6-3c1-0.2,17.1,0.8,39,4.3c0,0,0,0,0,0
	C1564.8,509.5,1561.7,509,1557.9,508.5"/>
<path class="st3" d="M1559.9,508.9c-8.1-0.9-16.3-0.6-24.4-1.8c1.6-0.4,15.2,0.2,31.8,2.7c0,0,0,0,0,0
	C1565.4,509.6,1562.9,509.3,1559.9,508.9"/>
<path class="st3" d="M1562.3,509.4c-3.9-0.2-7.6-0.2-10.6-0.2c-4.7,0-6.7,0-7.5-0.3c0.8-0.6,10.4-0.7,23,0.9c0,0,0,0,0,0
	C1566,509.7,1564.3,509.6,1562.3,509.4"/>
<path class="st2" d="M1565.1,510c-2.7,0.3-5.3,0.9-8,1.1c-0.4,0-2.4,0.2-2.6-0.3c0.6-0.9,6.1-1.5,12.8-0.9
	C1566.7,509.9,1566,509.9,1565.1,510"/>
<path class="st2" d="M1567.9,510.5c1.2,1.7-0.3,2.9-1.9,2.6c-1.6-0.3-2.1-1.6-0.5-2.6c0.2-0.1,0.8-0.5,1.8-0.7c0,0,0,0,0,0
	C1567.4,510,1567.7,510.2,1567.9,510.5"/>
<path class="st1" d="M1570.6,511c3.8,1.4,6.7,3.2,6.7,4c-0.4,0.4-2.2-0.3-4.6-1.8c-4.8-3-4.8-3-5.4-3.3c0,0,0,0,0,0
	C1568.1,510.1,1569.3,510.5,1570.6,511"/>
<path class="st1" d="M1573.1,511.4c7.9,2.3,13.3,4.6,14,5.3c-0.6,0.1-1.7-0.3-6.6-2.2c-4.8-1.9-8.6-3.4-13.3-4.6c0,0,0,0,0,0
	C1568.7,510.2,1570.8,510.7,1573.1,511.4"/>
<path class="st1" d="M1575.3,511.7c10.7,2.7,18.7,5.4,20.7,6.4c-0.6,0-0.7,0-6.8-2c-6.5-2.1-13.6-4.4-21.9-6.3c0,0,0,0,0,0
	C1569.3,510.3,1572.1,510.9,1575.3,511.7"/>
<path class="st1" d="M1577.1,512c15.7,3.6,25.5,6.9,26.6,7.4c-0.6-0.1-0.7-0.1-6.2-1.7c-6.9-2-17.4-5.1-30.2-7.8c0,0,0,0,0,0
	C1569.8,510.4,1573.2,511.1,1577.1,512"/>
<path class="st1" d="M1578.5,512.2c17.1,3.7,29.2,7.3,31,8c-0.4,0-0.5-0.1-4.8-1.2c-8.5-2.3-21.4-5.8-37.4-9.1c0,0,0,0,0,0
	C1570.3,510.4,1574,511.2,1578.5,512.2"/>
<path class="st5" d="M1468.2,502c-12,0.1-23.9,2.3-35.9,0.5c8.3-3,64.5-1.6,75.4,0.1C1494.5,503.2,1481.3,501.9,1468.2,502"/>
<path class="st5" d="M1478.4,504.6c-34.3,1.3-34.3,1.3-34.7,0.8c7.9-3.4,58.1-3,69.2-1.3C1501.4,505.1,1489.9,504.2,1478.4,504.6"/>
<path class="st3" d="M1493.1,507.9c-23.7,2.1-29.3,2.6-32,1.7c0-0.1,0-0.3,0-0.4c7.1-4.2,50.7-4.6,59.7-3.3
	c-0.5,0.2-0.5,0.2-4.6,0.4C1509.3,506.7,1503.3,507,1493.1,507.9"/>
<path class="st3" d="M1512,511.9c-7.3,1.3-26.7,4.9-28.3,2.1c1.2-4.7,38.1-7.3,47.6-5.9c0.1,0,0.2,0.1,0.3,0.1
	C1531.3,508.4,1531.3,508.4,1512,511.9"/>
<path class="st3" d="M1534.4,516.3c-14.5,6-24.7,5-23.5,1.9c1.9-5,26.6-8.5,33-7.6c0.2,0,0.4,0.1,0.6,0.2
	C1544.5,512.2,1535.4,515.9,1534.4,516.3"/>
<path class="st3" d="M1558.4,520.9c-4.8,7.5-16.6,7.2-17.9,2.6c-1.5-5.4,12-10.8,17.5-10.1C1561.4,514.3,1559.5,519.2,1558.4,520.9"
	/>
<path class="st1" d="M1582.1,525.2c2.7,5.9-2,8.8-7.5,6.6c-9.3-3.6-7.9-14-4-15.7c0.6-0.3,1-0.2,1.6-0.1
	C1575.3,516.8,1580.3,521.3,1582.1,525.2"/>
<path class="st1" d="M1604.6,529.1c6,5,6.8,8.3,4,8.7c-7.9,1.1-24.8-17.6-23.6-19.3c0.1-0.2,0.5-0.1,0.8-0.1
	C1588.9,519.1,1598.5,524.1,1604.6,529.1"/>
<path class="st1" d="M1625,532.4c9.3,5.4,13.1,9.4,11.3,10c-4.8,1.6-36-19.6-38.3-21.7c0-0.1,0-0.2,0-0.2c0.1,0,0.2,0,0.3,0
	C1601.3,521.2,1614.5,526.4,1625,532.4"/>
<path class="st1" d="M1642.6,535.1c8.9,4.2,18.2,9.5,17.9,11.1c-3.5,1.3-51-23.6-51.4-23.9c0,0,0.1-0.1,0.1-0.1
	C1612.1,522.8,1628,528.2,1642.6,535.1"/>
<path class="st1" d="M1656.4,537c12.1,5,22.3,10.2,23.7,12c-0.5,0.2-1,0.3-6.6-2c-0.5-0.2-55-23.1-55.3-23.5
	C1620.6,524,1638.2,529.4,1656.4,537"/>
<path class="st1" d="M1693.7,550.7c-1.1-0.2-69-26.2-69.2-26.5C1648.4,531.5,1671.5,540.4,1693.7,550.7"/>
<path class="st5" d="M1376.5,508.1c-34.5,5.2-34.5,5.2-36.1,5c2.7-3.8,66.5-11.9,75-10.7c-0.6,0.3-0.7,0.4-9.6,1.5
	C1398.3,504.9,1389.8,506,1376.5,508.1"/>
<path class="st5" d="M1391.1,512.1c-22.3,4.1-34.9,6.1-37.3,4.9c2.4-5.5,62-13.2,70.9-11.8C1424.1,506.1,1424.1,506.1,1391.1,512.1"
	/>
<path class="st5" d="M1414.4,517.6c-32.9,7.9-38.7,6.1-37.1,4c4.5-5.9,51.9-14.3,63.7-12.4c0.1,0.1,0.3,0.1,0.5,0.2
	c0,0.1,0,0.3,0,0.5C1438.9,511.6,1423.4,515.5,1414.4,517.6"/>
<path class="st5" d="M1445.5,524.4c-23.9,8.2-37.5,7.7-36,3.8c2.6-6.8,41.7-15.8,54.3-13.9c1.1,0.3,2.7,0.8-1.4,3.1
	C1459.1,519.3,1452.5,522,1445.5,524.4"/>
<path class="st3" d="M1483.8,532.2c-17.8,9.9-35.9,9.1-34.1,2.8c2.2-7.7,30.6-16.6,42.6-14.8c7.7,2.1-5.2,10.1-6.7,11
	C1485.1,531.5,1484.3,531.9,1483.8,532.2"/>
<path class="st3" d="M1527.3,540.6c-9.6,11.2-30.1,11.2-31.3,2.6c-1.2-8.5,18.5-18,29.8-16.4C1534.9,529,1529.8,537.7,1527.3,540.6"
	/>
<path class="st3" d="M1571.3,548.7c-1.6,11.7-18.7,13.3-25.5,4.8c-7.5-9.4,4.1-21.2,13.7-20.4c0.3,0,0.8,0.1,1.1,0.1
	C1569.1,535.3,1572,543.7,1571.3,548.7"/>
<path class="st1" d="M1614,556.3c4.1,9.6-3,13.9-11.8,10.6c-14.8-5.4-19-22.9-11.8-26.9c1.6-0.9,3.3-0.7,4.4-0.6
	C1603.4,541.4,1611.4,550.5,1614,556.3"/>
<path class="st1" d="M1653.6,563c7.4,8.5,6.2,13.3,0.7,13.1c-13.8-0.6-35.4-26-30-30.7c0.7-0.6,1.7-0.5,2.8-0.4
	C1634.7,546.7,1647.4,555.9,1653.6,563"/>
<path class="st1" d="M1688.7,568.6c10.8,8.9,12.6,14.4,8.2,14.4c-11.4,0.1-45.2-29.5-42.4-33.1c0.3-0.4,1-0.3,1.6-0.3
	C1662.8,551.1,1678.6,560.3,1688.7,568.6"/>
<path class="st4" d="M1717.6,572.7c13.2,8.9,18.4,15.3,15.1,15.6c-6.3,0.6-53.5-30.3-53.1-34.9c0.2-0.1,0.6-0.1,0.9-0.1
	C1686.1,554.5,1703.9,563.4,1717.6,572.7"/>
<path class="st4" d="M1738.8,575.3c10.1,6.1,21.2,13.8,21.6,16.4c-3.4,3-61-35.1-61.5-35.7c0.1-0.1,0.3-0.1,0.4-0.2
	C1703.6,556.7,1722.1,565.3,1738.8,575.3"/>
<path class="st5" d="M1285.6,526c-31.3,9.3-31.3,9.3-33.6,9.6c1.9-4.1,68-21.5,72.3-21c-0.9,0.5-1.1,0.6-12.4,3.8
	C1305,520.4,1297.2,522.6,1285.6,526"/>
<path class="st5" d="M1299.9,530.7c-22.6,7.3-35.2,10.3-37.4,9c-0.6-6,60.8-23.1,70.5-21.7c0.1,0.1,0.2,0.3,0.2,0.5
	C1331.4,520.1,1320.2,524.2,1299.9,530.7"/>
<path class="st5" d="M1327.1,537.6c-26.2,9.8-41.7,11.7-39.7,7.2c3.5-7.7,52-23.5,65.8-21.4c1.1,0.4,3.8,1.5-11.5,8.3
	C1335.6,534.3,1329,536.9,1327.1,537.6"/>
<path class="st5" d="M1366.1,546.3c-24.3,11.4-44.3,12.8-41,5.4c4.5-10,44.9-23.4,58.7-21.3c7.4,2.3-7.5,10.7-12.3,13.2
	C1369.9,544.5,1367.8,545.6,1366.1,546.3"/>
<path class="st5" d="M1415.8,556.7c-19.7,12.9-43.5,13.8-42.2,4.3c1.4-10.3,33.8-24.5,50.2-22.1
	C1433.7,541.6,1424.2,551.3,1415.8,556.7"/>
<path class="st3" d="M1475,568.5c-14.8,15.6-43.3,14.5-42.8,1.8c0.4-11.2,24.2-23.9,40.4-21.5C1485,551.9,1480.7,562.5,1475,568.5"
	/>
<path class="st3" d="M1538,580.4c-7.2,17.2-34.7,16.5-39.9,2.7c-4.5-12.1,12.3-26.2,28.5-23.9C1539.3,562.2,1540.9,573.4,1538,580.4
	"/>
<path class="st1" d="M1600.1,591.6c0.4,16.4-21,18.6-32.5,7c-12.1-12.3-4.2-29.5,9.7-29.8c1,0,2.4,0.1,3.4,0.3
	C1593.6,572.1,1599.9,584.3,1600.1,591.6"/>
<path class="st1" d="M1659.1,601.9c5.4,13.9-5.4,19.1-17.8,13.4c-18.6-8.4-25.7-32.6-14.2-36.8c2-0.7,3.8-0.5,5.6-0.3
	C1645.5,581.1,1656,594,1659.1,601.9"/>
<path class="st1" d="M1712.7,610.7c7.5,10.8,5.9,18.4-3.6,16.9c-19-3-41.5-35.1-33-40.8c1.3-0.9,2.8-0.7,4.4-0.6
	C1692.2,588.8,1706.7,602,1712.7,610.7"/>
<path class="st4" d="M1758.7,617.7c9.7,10.4,12.2,18.3,5.7,18.4c-16.4,0.2-50.6-38.5-44.6-43c0.7-0.5,1.8-0.4,2.7-0.3
	C1732,594.8,1749.2,607.5,1758.7,617.7"/>
<path class="st4" d="M1794.7,622.5c11.7,10.5,17.4,19.1,12.9,19.7c-8.6,1-57.7-40.5-52.5-44.4c0.3-0.2,0.9-0.2,1.3-0.2
	C1764.3,599.2,1783.1,612.1,1794.7,622.5"/>
<path class="st4" d="M1836.5,645.4c-10.7-4-55.1-40.3-56.6-44.8c0-0.1,0.1-0.2,0.1-0.2C1799.9,614.2,1818.7,629.2,1836.5,645.4"/>
<path class="st5" d="M1200.4,555.7c-12.2,5.6-23,10.8-28.2,13.5l17.3-8.7c14.8-6.5,34.4-15.5,49.5-21.3
	C1238.7,539.3,1223.4,545.2,1200.4,555.7"/>
<path class="st5" d="M1209.5,560c-12.2,5.7-33,15-34.9,13.1c1.5-5.8,59.2-32.3,67.9-31.1c0,0.2,0,0.4,0,0.6
	C1239.3,545.9,1218.4,555.9,1209.5,560"/>
<path class="st5" d="M1235.8,567.4c-23,11.8-41.8,16.8-39.4,10.6c3.7-9.5,52.4-32,65.2-30.1C1268.2,550.8,1236.1,567.2,1235.8,567.4
	"/>
<path class="st5" d="M1277.8,577.3c-24.5,14.6-46.4,17.1-43.4,7.8c3.9-11.9,44.8-31.4,60.7-29
	C1304.8,559.3,1285.9,572.5,1277.8,577.3"/>
<path class="st5" d="M1334.2,589.5c-21.4,16-48.1,17.5-47.1,6c1.1-13.1,36.6-31.8,55-29C1354.2,570,1343.7,582.5,1334.2,589.5"/>
<path class="st3" d="M1403.6,603.7c-18.7,19.3-51.1,18-50.4,2.5c0.6-13.1,27.5-30.4,48-27.3C1415.8,582.6,1411.4,595.6,1403.6,603.7
	"/>
<path class="st3" d="M1482.7,619c-11.9,20.5-46.1,19.2-51.4,2.7c-4.5-14.2,16.1-32.6,39.3-29.2
	C1487.3,596.5,1487.7,610.4,1482.7,619"/>
<path class="st3" d="M1562.9,633.9c-4.5,19.8-37,22.4-47.6,3.8c-8.4-14.8,5.3-34.7,27.7-31.6C1560.2,610.1,1565,624.7,1562.9,633.9"
	/>
<path class="st1" d="M1640.6,647.7c1.4,18-19.8,24.2-36.7,10.7c-18.1-14.6-13.2-37.5,3.8-39.7c2.4-0.3,4.6,0,6.4,0.2
	C1631.1,622.7,1639.8,638,1640.6,647.7"/>
<path class="st1" d="M1712.9,659.9c5.3,15.6-5.7,24-21.8,16.6c-22.9-10.4-31.5-40.5-17.2-45.7c2.6-1,4.8-0.7,7.2-0.5
	C1697.1,633.9,1709.6,650.1,1712.9,659.9"/>
<path class="st1" d="M1777,670.1c8,14.2,4.1,23.4-8.5,20c-22.6-6-43.7-42.5-32.7-49.2c1.8-1.1,3.7-0.9,5.7-0.8
	C1756,643.3,1771.3,659.9,1777,670.1"/>
<path class="st4" d="M1830.1,677.8c9.8,13.3,10.6,23.2,1.8,22c-19.5-2.7-50.5-46.2-42.5-51.4c1-0.6,2.3-0.5,3.4-0.5
	C1803.9,650.2,1820.8,665.2,1830.1,677.8"/>
<path class="st4" d="M1869.1,682.4c11.8,13.6,16.2,24.1,9.8,23.4c-12.9-1.3-55.4-47.5-48.4-52.6c0.4-0.3,1.1-0.3,1.6-0.3
	C1840.4,654.7,1857.9,669.6,1869.1,682.4"/>
<path class="st5" d="M1126,600.5c-12.6,8.1-28.1,17.7-30.2,17.6c3.3-7,59.7-40.6,63-40.3C1158.5,578.4,1157.4,580.3,1126,600.5"/>
<path class="st5" d="M1147.9,607.6c-20.3,13.6-37.5,20.6-36.9,15c1.1-9.8,50.5-41.1,62.1-39.4C1178.2,586,1156.6,601.8,1147.9,607.6
	"/>
<path class="st5" d="M1189.4,618.1c-21.3,15.7-43.9,21.9-43.2,11.9c0.9-13.5,43.5-40.4,59.9-37.9
	C1215.1,595.3,1200.6,609.7,1189.4,618.1"/>
<path class="st5" d="M1248.8,631.4c-20.9,18.1-49.9,22.8-49.2,8c0.6-14.5,35.7-39,56.5-35.8C1269.5,607.6,1258.7,622.8,1248.8,631.4
	"/>
<path class="st3" d="M1324.5,647.3c-19.1,20.8-55.5,23.1-54.9,3.4c0.5-15.8,29-36.6,52.2-33.1C1338.3,622,1333.3,637.6,1324.5,647.3
	"/>
<path class="st3" d="M1414.6,665.1c-13.9,21.5-54.2,23.5-59.9,3c-4.6-16.7,20-38.4,46.5-34.4C1421.4,638.6,1421.2,655,1414.6,665.1"
	/>
<path class="st3" d="M1510.6,683.3c-8.5,22.9-47.1,25.4-58.2,3.7c-8.9-17.4,10-40.3,37.5-36.4
	C1510.7,655.5,1514.5,672.7,1510.6,683.3"/>
<path class="st3" d="M1605.2,700.5c-2.7,22.4-35.8,27-52.1,7.3c-15-18.2-1.5-43.3,22.3-41.2c0.8,0.1,2,0.3,2.8,0.4
	C1599,671.6,1606.5,689.4,1605.2,700.5"/>
<path class="st1" d="M1695,716c2.2,21.2-21.2,28.6-41,13c-21.8-17.2-17.8-44.6,1.6-47.4c2.8-0.4,5.4-0.1,7.5,0.2
	C1683.2,686.2,1693.9,704.5,1695,716"/>
<path class="st1" d="M1776.7,729.4c5.7,19.3-8.6,28.8-27.3,18.3c-25.7-14.5-31.9-48.8-14.3-52.7c2.3-0.5,4.6-0.3,6.5-0.1
	C1759.9,698.9,1773.2,717.5,1776.7,729.4"/>
<path class="st4" d="M1846.8,740.1c8,17.4,1.8,28.2-13,22.6c-25.7-9.8-43.3-51.3-28.9-56.6c1.7-0.6,3.7-0.5,5.2-0.4
	C1825.9,709,1841.3,728.2,1846.8,740.1"/>
<path class="st4" d="M1901.7,747.5c9.7,16.5,9,28-1.6,25c-20.6-5.8-47.2-51.9-38.1-58.3c1.1-0.8,2.5-0.7,3.7-0.7
	C1877,715.9,1893.2,733,1901.7,747.5"/>
<path class="st4" d="M1945.6,777.6c-15.2-6.2-49.3-55.3-41.4-59.7C1919.1,736.9,1933,756.9,1945.6,777.6"/>
<path class="st5" d="M1052.4,651.3c-5.4,4.6-13,11.4-19.2,17.2l1.1-1.1c13.7-11.9,31.8-28.1,46-39.3
	C1069.7,636.3,1056.3,647.9,1052.4,651.3"/>
<path class="st5" d="M1064.6,657.2c-17.1,14.9-31.5,23.9-31.4,19.7c0.2-6.3,46.8-49.5,56.7-48.2
	C1092.7,631,1075.8,647.4,1064.6,657.2"/>
<path class="st5" d="M1100.2,667.1c-19.8,18-40.9,26-39.6,15c1.6-13.9,40.5-47.6,56.2-45.2C1125.1,640.3,1111,657.2,1100.2,667.1"/>
<path class="st5" d="M1157.2,680.6c-20.5,20.7-48.7,26.7-47.9,10.2c0.8-16.9,34.5-45.4,55.3-42.3
	C1177.3,652.7,1167.9,669.8,1157.2,680.6"/>
<path class="st5" d="M1233.9,697.3c-18.8,22.3-53.8,26.7-55.9,7.1c-2-18.1,28.6-44.7,53.5-40.8
	C1248.7,668.3,1243.3,686.1,1233.9,697.3"/>
<path class="st3" d="M1328.3,716.5c-16.1,24.1-58.2,26.7-63.4,3.8c-4.4-18.8,22.5-43.7,50.7-39.4
	C1337,686.4,1335.9,705,1328.3,716.5"/>
<path class="st3" d="M1436.1,737.4c-12.4,26.7-59.4,27.4-68,1.1c-6.4-19.5,16.6-42.5,46.5-38.1
	C1438.7,706.2,1441.7,725.5,1436.1,737.4"/>
<path class="st3" d="M1545.5,757.7c-7,26.4-48.9,29.5-64.1,4.7c-12.3-20.1,5.5-46.9,36.7-42.6
	C1542.4,725.5,1548.8,745.4,1545.5,757.7"/>
<path class="st1" d="M1651.5,776.6c-2.1,25.5-37.7,31-57,8.7c-18-20.8-4.7-49.7,21.9-47.5c1,0.1,2.2,0.3,3.2,0.4
	C1643.3,743.5,1652.5,763.8,1651.5,776.6"/>
<path class="st1" d="M1750.3,793.3c2,23.5-23.4,32.1-44.6,15.1c-24.1-19.3-19.9-50.5,1.4-53.9c3.2-0.5,6-0.2,8.4,0.1
	C1737.6,759.5,1749.2,780.1,1750.3,793.3"/>
<path class="st1" d="M1837.9,807.2c5,21.7-10.5,32.4-30,20.9c-25.3-14.9-34-54.1-13.2-59.2c2.6-0.6,5.1-0.4,7.1-0.2
	C1821.6,772.9,1834.8,793.8,1837.9,807.2"/>
<path class="st4" d="M1910.4,817.7c7.2,20.6-1.4,32.6-17.5,24.3c-23.2-12-39.6-55.3-23.4-61.9c1.9-0.8,3.9-0.6,5.5-0.5
	C1891.5,783.1,1905.6,804,1910.4,817.7"/>
<path class="st4" d="M1963.9,824.2c8.7,19.4,6.3,32.5-4.9,27.4c-19-8.6-42.6-59.1-30-64.2c0.7-0.3,1.8-0.3,2.6-0.3
	C1943.6,789.6,1957.7,810.3,1963.9,824.2"/>
<path class="st5" d="M993.7,716.9c-7.4,8.5-22.1,24.6-24.4,24.5c-0.7-3.9,45.4-57.1,49.4-56.8
	C1019.1,686.7,1004.3,704.8,993.7,716.9"/>
<path class="st5" d="M1021,725.8c-16.6,19.2-34.1,29.4-34,19.7c0.1-13.2,36.7-55.7,50-53.8C1043.4,695,1031.5,713.6,1021,725.8"/>
<path class="st5" d="M1073,739c-17.9,22-42.7,30.3-44.2,14.8c-1.7-17.7,30.9-53.7,50.9-50.6C1091.7,707.3,1083,726.6,1073,739"/>
<path class="st5" d="M1147.6,755.8c-18.4,25.2-52.1,30.6-54.5,8.9c-2.2-20,27.2-50.2,51.6-46.5
	C1162,723.3,1156.8,743.2,1147.6,755.8"/>
<path class="st3" d="M1242.8,775.7c-16.8,26.8-58.7,30.1-64.2,5c-4.5-20.8,22.7-48.7,51.3-44.3
	C1252.1,742.2,1250.8,762.9,1242.8,775.7"/>
<path class="st3" d="M1356.3,798.2c-14.3,28.9-64.8,29.7-73.1,1.2c-6.2-21.5,18.8-46.9,50.4-42.2
	C1360,763.7,1362.8,785.1,1356.3,798.2"/>
<path class="st3" d="M1477.3,821.1c-10.4,30-60.4,31.2-73.4,1.8c-9.7-22,12-48.2,45.1-43.4C1476.2,785.8,1481.9,807.6,1477.3,821.1"
	/>
<path class="st3" d="M1596.6,842.8c-5.9,29.5-50,33.3-68.2,5.9c-15-22.4,2-52.6,35.9-48C1591.2,806.7,1599.4,828.9,1596.6,842.8"/>
<path class="st1" d="M1710,862.4c-1.9,28.3-38.9,34.7-60,10.3c-20.3-23.4-7.3-55.2,21.7-53c1,0.1,2.4,0.3,3.4,0.4
	C1700.8,825.8,1711,848.3,1710,862.4"/>
<path class="st1" d="M1813.1,879.4c1.4,25.9-24.7,35.6-46.5,17.3c-24.7-20.7-21.6-58.1,4.9-59.7c1.8-0.1,4.2,0.1,6,0.3
	C1800.8,842.3,1812.4,864.9,1813.1,879.4"/>
<path class="st4" d="M1901.7,892.9c4,25-14.1,36.5-33.9,21.5c-24.5-18.5-28.3-60.4-5.7-63.2c1.5-0.2,3.5,0,5,0.1
	C1887,855.5,1899.3,878.1,1901.7,892.9"/>
<path class="st4" d="M1971.2,902.2c5.6,22.4-3.2,35.6-18,27.1c-22.9-13.2-35.5-63-17.1-67.6c1.1-0.3,2.6-0.2,3.8-0.2
	C1955.4,864.8,1967.5,887.3,1971.2,902.2"/>
<path class="st4" d="M2014.7,937.8c-16-3.4-37.6-62.9-25.3-69.9c0.4-0.2,1-0.4,1.5-0.4C2000.1,890.2,2008.1,913.7,2014.7,937.8"/>
<path class="st5" d="M937,785.9c-3.5,5.4-8.4,13.3-12.2,19.9c9.1-14.4,21-33.9,30.8-47.9C950.2,765.6,943.9,775,937,785.9"/>
<path class="st5" d="M952.1,793c-12.2,18.7-24.6,30.9-26,25.6c-2.1-8.1,30.7-64.3,41.5-63C971.8,758.7,961.1,779.3,952.1,793"/>
<path class="st5" d="M995,804.9c-14.9,23.1-34.9,33.6-37.6,19.6c-3.4-17.7,25.9-61.4,43.7-58.8C1011.5,769.9,1003.8,791.2,995,804.9
	"/>
<path class="st5" d="M1063.2,821.1c-15.7,25.9-44.9,33.8-49.6,13.5c-4.9-21.4,22.4-58.1,46.3-54.4
	C1076.2,785.3,1071.7,807.2,1063.2,821.1"/>
<path class="st5" d="M1154.7,840.9c-15.3,27.7-52.9,33.5-61,9.4c-7.5-22.6,19-56.4,48.2-51.9
	C1163.6,804.4,1162.4,826.8,1154.7,840.9"/>
<path class="st3" d="M1267.1,863.7c-14.4,30-60.6,33.4-71.7,5.2c-9.4-23.8,15.5-54.4,49.5-49.3
	C1271.6,826.4,1273.9,849.5,1267.1,863.7"/>
<path class="st3" d="M1395.2,888.6c-12.4,32.2-65.4,33.3-78.8,1.6c-10-23.8,13.9-52,49.5-46.7
	C1395.4,850.5,1400.8,874.1,1395.2,888.6"/>
<path class="st3" d="M1524.8,912.6c-9.3,32.9-61.2,34.6-77.1,2.5c-11.9-24,9-52.9,44.3-48C1521.6,873.9,1529,897.8,1524.8,912.6"/>
<path class="st1" d="M1650.4,934.9c-5.7,31.2-51.4,35.8-70.9,7.1c-16.4-24.2,0.4-57.2,36.1-52.5
	C1644.2,895.8,1653.1,919.8,1650.4,934.9"/>
<path class="st1" d="M1767.2,954.6c-2.7,30.6-40.2,37.8-61.7,11.8c-20.7-25-7-59.4,22.9-57.5c1.1,0.1,2.5,0.3,3.6,0.4
	C1758.6,915.2,1768.6,939.3,1767.2,954.6"/>
<path class="st4" d="M1870.7,971c-0.1,29.4-29,39.1-50,16.7c-22.6-24.1-14.4-62.7,13.1-61.7c0.9,0,2.2,0.2,3.1,0.3
	C1860.3,931.4,1870.8,955.5,1870.7,971"/>
<path class="st4" d="M1956.2,983.4c1.9,26.3-16.2,38.9-34.1,23.8c-22.6-19.2-23.3-63.9-1.2-67.4c1.5-0.2,3.4-0.1,4.9,0
	C1944.9,943.8,1955.1,967.7,1956.2,983.4"/>
<path class="st4" d="M2019,990.9c3.2,23.5-5.5,37.9-17.9,29.6c-21.2-14.2-28-70-8.8-71.9c0.5-0.1,1.2,0,1.8,0
	C2007.7,951.4,2016.8,975,2019,990.9"/>
<path class="st5" d="M898.3,868.5c-5.9,13-13.5,28-16.1,30.3c-0.1-0.1-0.3-0.3-0.4-0.4c0.2-2.1,1.4-5.6,4.6-13.7l19.6-43.9
	c6.3-12.6,7.1-12.6,7.5-12.6C914.2,830.8,906.2,851.1,898.3,868.5"/>
<path class="st5" d="M928.2,878.4c-10.3,22-24.1,34.9-27.9,26.1c-5.6-13,18.7-70.2,33.6-68.1C941.7,840.4,935.3,863.4,928.2,878.4"
	/>
<path class="st5" d="M986.1,893.1c-12.4,26.5-35.7,36.9-41.6,18.6c-6.9-21.3,16.3-65.5,37.9-62.2C996.6,854.4,993.1,878,986.1,893.1
	"/>
<path class="st5" d="M1069.4,911.9c-12.9,28.6-44.4,36.8-54.3,14.2c-10.4-23.7,13.1-63.8,41.5-59.5
	C1076.9,872.7,1076.3,896.7,1069.4,911.9"/>
<path class="st5" d="M1176,934.3c-13.3,31.5-57.1,35.8-68,6.7c-9.4-25.3,13.8-58.4,46.3-53.4C1180.1,894.4,1182.5,919,1176,934.3"/>
<path class="st3" d="M1303.4,959.6c-13,34-66.7,35.4-79.7,2.1c-9-23,10.5-55.9,49.7-50C1303.8,919.1,1309.3,944.2,1303.4,959.6"/>
<path class="st3" d="M1439.5,985.4c-10.9,33.8-65.8,35.4-81.6,2.4c-12.2-25.5,10.7-56,48.2-50.6
	C1437.5,944.5,1444.5,969.8,1439.5,985.4"/>
<path class="st1" d="M1573.9,1009.8c-8.6,32.9-57.6,37.2-77.2,6.8c-16.9-26.2,2.9-60.3,42.3-55
	C1569.9,968.6,1578.1,994,1573.9,1009.8"/>
<path class="st1" d="M1701.8,1032c-6.6,33.3-52.4,38.6-72,8.3c-16.9-26.1,0.1-60.7,37.2-56.1C1696.3,990.6,1705,1016,1701.8,1032"/>
<path class="st1" d="M1818.3,1051.1c-4.4,31.7-42.1,39.8-62,13.3c-18.9-25.1-5.3-64.3,29-60.5
	C1811.7,1009.7,1820.5,1035,1818.3,1051.1"/>
<path class="st4" d="M1918.4,1066.4c-2.5,30.3-31.3,41-49.7,18.5c-19.6-24-10.6-67.4,20.3-64.7
	C1911.5,1025,1919.7,1050.1,1918.4,1066.4"/>
<path class="st4" d="M1997.3,1077.1c-0.8,27.6-18.4,41.1-33.6,25.8c-20.8-21-15.7-70,7.4-70.8c0.7,0,1.6,0.1,2.3,0.1
	C1990.7,1035.9,1997.8,1060.6,1997.3,1077.1"/>
<path class="st4" d="M2037.4,1116.1c-19.8-3.8-21.7-65.9-8-75.8c1.7-1.2,3-1.3,4.3-1.3l0.2,0
	C2036.5,1064.4,2037.7,1090.1,2037.4,1116.1"/>
<path class="st5" d="M863.7,952.6c-1.7,6.2-3.3,12.6-4.5,17.5l12.5-44.8C870.7,928.4,867.7,937.9,863.7,952.6"/>
<path class="st5" d="M880,960.3c-6.6,22.1-15.1,36.6-17.9,30.5c-4.3-9.3,11.5-76.2,22.3-75C888.9,919,885.7,941,880,960.3"/>
<path class="st5" d="M926,973c-7.9,25.2-23.9,38.3-31,25.6c-10.3-18.5,6-74.6,26.1-71.7C933,931.7,931.1,956.8,926,973"/>
<path class="st5" d="M999.3,990.4c-9.4,28.7-34.5,39.4-45.5,19.3c-12.8-23.3,5.4-70.8,31.8-66.8
	C1003.9,948.6,1004.6,974.1,999.3,990.4"/>
<path class="st5" d="M1097.5,1011.6c-10.6,31.8-47.4,38.9-60.6,11.7c-12.9-26.6,7-65.4,38.7-60.6
	C1099.7,969.4,1102.9,995.4,1097.5,1011.6"/>
<path class="st3" d="M1218.2,1036.2c-11.2,33.8-58.2,38.1-73.8,6.8c-13.6-27.1,7.8-62.4,44.2-56.9
	C1218,993.6,1223.6,1019.9,1218.2,1036.2"/>
<path class="st3" d="M1355.7,1062.9c-11.3,35.5-66.4,37.2-83,2.6c-13-27.1,9.2-59,48.7-53.2
	C1355.6,1020.4,1360.6,1047.6,1355.7,1062.9"/>
<path class="st3" d="M1494.9,1088.7c-10.6,35.7-65.3,37.9-82.5,3.3c-13.4-27,8-59.2,47.3-53.7
	C1493.9,1046.1,1499.4,1073.3,1494.9,1088.7"/>
<path class="st1" d="M1629.7,1112.6c-9.4,34.6-57.7,39.6-77.2,8c-16.8-27.2,3.3-63,42.8-57.9
	C1628.2,1070,1633.9,1097.2,1629.7,1112.6"/>
<path class="st1" d="M1755.2,1133.8c-8.4,34.8-52.9,40.9-71.1,9.7c-15.6-26.8,2.6-63.1,39.1-58.9
	C1753.5,1091.2,1758.9,1118.3,1755.2,1133.8"/>
<path class="st4" d="M1866.3,1151.4c-7,33.1-43.1,42-60.5,14.9c-16.8-26.2-1.1-66.4,32.4-63.1
	C1863.4,1108.7,1869.8,1134.7,1866.3,1151.4"/>
<path class="st4" d="M1958,1164.7c-5.7,31.5-32.8,43-47.6,20.3c-15.7-24.2-3-69,25.3-67.1C1957.3,1122.5,1960.9,1149,1958,1164.7"/>
<path class="st4" d="M2025.4,1172.7c-4.1,28.1-20.7,42.6-31.6,27.7c-14.3-19.4-5.6-73.2,16.8-72.9
	C2025.8,1130.8,2027.8,1157,2025.4,1172.7"/>
<path class="st4" d="M2036.1,1279.3c-7.6,25.6-19.8,40.2-25.1,30c-2.1-4.1-2.1-11.2-2.1-11.3c4.8-15.8,9.1-31.9,12.7-48.3
	c5.5-9.3,9.5-13.3,13.8-13.7C2044.7,1238.2,2040.8,1263.7,2036.1,1279.3"/>
<path class="st4" d="M2039.9,1307.2c-1.1,3.3-1.5,4.2-2,4.8c-1.6-4.3,16.5-71.5,20.5-76.6c0.2,0.7,0.3,0.9-0.6,5
	C2052.8,1260.6,2046.3,1287.5,2039.9,1307.2"/>
<path class="st5" d="M848.8,1060.2c-1.5,14.2-3.9,30.7-5.5,33.2c-0.5-0.5-0.8-0.8-0.4-9.8l0.1-2.5c1.6-17.2,3.4-40.2,5.8-57.3
	c1.1-7.3,1.6-8.5,2-9.3c0.1,0,0.1,0,0.2,0C852.3,1017.3,850.8,1040.8,848.8,1060.2"/>
<path class="st4" d="M1985.7,1364.9c-1.8,3.9-4,7.8-6.3,11.2c4.5-9.9,8.7-19.9,12.8-30.1C1991.5,1349.4,1989.8,1356.3,1985.7,1364.9
	"/>
<path class="st4" d="M2015.2,1365.6c-9.1,20-20.1,36.8-21.9,30c-2.7-10.2,21.1-66.6,32.3-69.3
	C2030.5,1327.7,2022,1350.6,2015.2,1365.6"/>
<path class="st4" d="M1963.1,1445.5c-14,21.3-29.3,33.4-31.6,25c-0.8-2.8,0.5-7.9,1-9.4c8.7-13.1,16.9-26.7,24.6-40.6
	c7.7-7.9,12.5-11.2,16.9-11.5C1982.3,1410.8,1971.8,1432.3,1963.1,1445.5"/>
<path class="st4" d="M1976.9,1440.8l-20.1,30c-0.9,1.3-1.1,1.5-1.5,1.9c0.3-3.5,35.8-60,40.5-64.3c-0.1,0.5-0.1,0.5-0.9,2
	L1976.9,1440.8"/>
<path class="st4" d="M1894.2,1515.9c-6.6,7.5-13,12.6-13.3,12.8c9.2-10.4,18-21.2,26.5-32.3
	C1907.1,1497.3,1903.6,1505.2,1894.2,1515.9"/>
<path class="st4" d="M1919.6,1516.4c-14.6,16.7-27.2,27.8-28,24.7c-1.4-5,38.1-54.2,49.2-56.6c0.2,0,0.4,0.1,0.5,0.1
	C1943.2,1488,1927.9,1506.9,1919.6,1516.4"/>
<path class="st4" d="M1848.4,1579.2c-18.6,15.9-36.2,25.2-35.5,18.7c0.2-1.6,1.4-3.6,2.3-5c13.3-11.2,26.2-23,38.6-35.4
	c8.6-5.4,12.2-6.6,15.3-6.8C1876,1552.3,1861.2,1568.3,1848.4,1579.2"/>
<path class="st4" d="M1852.5,1583.5l-19.3,15.6c-0.2,0.2-0.6,0.4-0.8,0.6c1.2-1.7,53.3-47.2,56.3-49.3c-0.2,0.3-0.5,0.6-0.7,0.8
	C1877.4,1560.9,1863.6,1574.4,1852.5,1583.5"/>
<path class="st4" d="M1766.6,1631.1c-8.1,5.2-15.4,8.8-15.8,9c11.5-7.3,22.8-15,33.8-23C1784,1617.7,1778.3,1623.6,1766.6,1631.1"/>
<path class="st4" d="M1786.7,1631.5c-14,8.9-30.4,18.1-32.5,17.5c1.9-4.7,55-39.2,62.4-40.5c0.1,0,0.3,0.1,0.4,0.1
	C1817.1,1610.8,1801.3,1622.2,1786.7,1631.5"/>
<path class="st4" d="M1702.7,1673.9c-14.9,6.7-33.2,13.4-36.9,12.6c0-0.2,0-0.5-0.1-0.6c0.5-0.5,1.1-1.3,3.9-3
	c16.6-7.1,32.9-15,48.8-23.7c9.5-3.7,12.5-3.8,13.5-3.9c0.3,0.1,0.7,0.2,0.9,0.5C1732.5,1658.8,1717.4,1667.2,1702.7,1673.9"/>
<path class="st4" d="M1691.6,1681.4l-12.4,5c17.3-7,27-11.7,68-31.4l0,0C1730.6,1663.2,1708.6,1674.3,1691.6,1681.4"/>
<path class="st4" d="M1612.9,1704c-3.3,1-8.6,2.5-14.7,3.9c11.6-3.2,23.1-6.8,34.4-10.7C1628.9,1698.7,1622.4,1701.1,1612.9,1704"/>
<path class="st4" d="M1626.2,1704.3c-17.5,5.1-32.3,8.4-35,8.7c2.8-1.4,71.2-21.2,71.6-21.3
	C1660.9,1693.5,1640.2,1700.2,1626.2,1704.3"/>
<path class="st4" d="M1535.5,1722.8c-18.3,2.5-33.7,3.5-36.4,3.4c0.8-0.3,0.8-0.3,9.1-1.3c16.3-1.7,32.5-4.1,48.5-7.2
	c12.7-2,14.2-2.1,15.3-2.1C1571.2,1717,1551.7,1720.6,1535.5,1722.8"/>
<path class="st4" d="M1530.9,1723.7c10.1-1.3,22.6-3,39.3-6.1L1530.9,1723.7"/>
<path class="st2" d="M1443,1727.8c-1,0-3.9-0.1-8.4-0.2c8,0.3,16.1,0.3,24.1,0.2C1456.5,1727.9,1450.8,1727.9,1443,1727.8"/>
<path class="st2" d="M1449.8,1728c13.1,0.1,13.1,0.1,39.6-0.8l0,0C1477.5,1727.6,1461.7,1728.1,1449.8,1728"/>
<path class="st5" d="M879.6,1070.4c-3.3,24.2-12.2,38.1-18.4,28.7c-9.3-14.2-3.4-77.9,11.4-76
	C880.4,1026.9,882.3,1050.6,879.6,1070.4"/>
<path class="st5" d="M939,1085.4c-4.6,27.4-22,39.4-33.2,23c-14.8-21.7-5.5-75,17.7-71.6C939,1042.1,941.9,1068.4,939,1085.4"/>
<path class="st5" d="M1024.6,1104.7c-6.2,30.5-34.3,39.6-49.2,15.8c-16.3-25.8-3.1-70.1,26.2-65.7
	C1023.1,1061.2,1028,1087.8,1024.6,1104.7"/>
<path class="st5" d="M1133.9,1127.6c-7.7,32-45.7,38.5-63.6,11c-17.4-26.8-0.7-67,33.9-61.8
	C1131.3,1084,1137.9,1110.9,1133.9,1127.6"/>
<path class="st3" d="M1264.4,1153.5c-9,32.9-58.2,36.7-77.3,6.1c-17-27.2,2.8-63.5,41.8-57.7C1261,1109.9,1269,1136.9,1264.4,1153.5
	"/>
<path class="st3" d="M1403.8,1180c-10.5,35.2-64.4,37-82.4,2.7c-14.2-27,7.5-59.5,46.6-54C1400.9,1136.5,1408.7,1163.4,1403.8,1180"
	/>
<path class="st1" d="M1541.4,1205c-11.1,35.1-64.2,37.5-81.2,3.6c-13.4-26.7,8.6-59.3,47-54.2
	C1539.5,1161.7,1546.7,1188.4,1541.4,1205"/>
<path class="st1" d="M1672.3,1227.7c-11.5,35.1-62,38.3-77.2,4.9c-12-26.4,9.8-59.1,46.1-54.7
	C1671.7,1184.7,1677.7,1211.1,1672.3,1227.7"/>
<path class="st1" d="M1791.5,1247.3c-11,33-54.1,39.2-68.8,10c-13-25.8,7.9-62.3,42.4-58.6C1792.4,1204.6,1797,1230.7,1791.5,1247.3
	"/>
<path class="st4" d="M1893.9,1262.9c-10.4,31.2-45.1,40.3-58,15.2c-12.8-24.9,6.9-65.1,37.7-62.4
	C1896.7,1220.7,1899.4,1246.3,1893.9,1262.9"/>
<path class="st4" d="M1974.5,1273.8c-9.6,29.7-35.3,41.3-45.1,20.5c-10.9-23.2,7-67.3,32.5-66.1
	C1979.5,1232,1979.9,1257.1,1974.5,1273.8"/>
<path class="st4" d="M2004.5,1311.8c-19.5-4.3-2.1-65.2,15.3-75.2c2.2-1.2,3.7-1.3,4.9-1.4
	C2019.5,1261.5,2012.7,1287.1,2004.5,1311.8"/>
<path class="st5" d="M857.6,1156.4c0.6,20.6-1.9,34.5-5.5,31.1c-7.5-7.1-10.8-75.2-3.7-76.7c0.2,0,0.5,0,0.6,0.1
	C853.7,1114.1,857.1,1137,857.6,1156.4"/>
<path class="st5" d="M901.3,1168.6c-0.3,23.3-9.4,36.4-18.7,27c-15.9-16.1-15.7-74.3,0.3-74.1c0.5,0,1.1,0.2,1.6,0.2
	C896.4,1126.5,901.5,1152,901.3,1168.6"/>
<path class="st5" d="M971.6,1185.3c-1.7,26.2-19.6,37.4-34.3,21.3c-20.3-22.3-14.9-71.1,7.8-69.6c0.7,0,1.7,0.3,2.4,0.4
	C965.9,1143.1,972.7,1168.9,971.6,1185.3"/>
<path class="st5" d="M1066.4,1205.9c-3.6,29-32.7,37.2-51.1,14.3c-21.1-26.2-9.9-66.1,17.8-63.6c1,0.1,2.3,0.3,3.2,0.5
	C1060.4,1163.8,1068.4,1189.7,1066.4,1205.9"/>
<path class="st3" d="M1183.2,1229.8c-6.1,31.8-48.6,35.8-67.9,6.4c-17.1-26-2.2-61.2,32.8-55.9
	C1177.4,1187.7,1186.3,1213.7,1183.2,1229.8"/>
<path class="st3" d="M1316.9,1255.7c-8.5,32.8-60.2,34.2-79,2c-15.3-26.1,3.9-57.1,42-51.5C1312.3,1214,1321.1,1239.8,1316.9,1255.7
	"/>
<path class="st3" d="M1452.7,1280.9c-10.3,32.6-62.6,34.2-79.9,2.5c-14-25.7,7-56.5,45.1-51.2
	C1450.3,1239.7,1457.7,1265.2,1452.7,1280.9"/>
<path class="st1" d="M1584.5,1304.4c-12,32.3-63,34.6-78,3.4c-12.1-25.2,10.1-55.9,47-51.1
	C1584.5,1263.6,1590.3,1288.7,1584.5,1304.4"/>
<path class="st1" d="M1707.4,1325.2c-13.4,32.1-61.3,35.3-73.3,4.9c-9.7-24.6,13.2-55.4,47.4-51.3
	C1710,1285,1713.8,1309.6,1707.4,1325.2"/>
<path class="st4" d="M1816.4,1342.6c-13.9,30.9-53.8,37-64.7,9.8c-9.5-23.9,13.5-58,45.2-54.9
	C1822,1302.9,1823.4,1327.1,1816.4,1342.6"/>
<path class="st4" d="M1906.9,1355.7c-13.8,29.2-45.5,38-53.8,14.8c-8.2-22.8,14.7-60.3,42.1-58.3
	C1915.3,1316.6,1914.1,1340.3,1906.9,1355.7"/>
<path class="st4" d="M1973.7,1363.8c-12.6,26.5-34.1,38.2-40.3,22.1c-7.5-19.4,15.4-64.2,37.5-63.7
	C1985.1,1325.2,1981.1,1348.3,1973.7,1363.8"/>
<path class="st5" d="M858.6,1241.7c2.6,13.4,5.2,28.8,4.8,31.1c-0.4-0.4-0.6-0.6-1.8-5.1c-4.2-19.2-9.9-44.9-13.1-64.3
	c-0.5-3.4-0.5-4.3-0.4-5c0,0,0.1,0,0.1,0C850,1201.1,855,1222.9,858.6,1241.7"/>
<path class="st5" d="M887.3,1251.1c3,19.6,0.5,32.6-5.6,28.9c-13.7-8.2-26-73-14-73.7c0.3,0,0.8,0.1,1.1,0.1
	C877.5,1210.5,884.9,1235,887.3,1251.1"/>
<path class="st5" d="M942.6,1265.1c2.1,22.5-7.1,34.3-19.3,24.9c-20.1-15.5-27.3-67.8-9.7-70.7c1.1-0.2,2.6,0,3.8,0.2
	C932.2,1224.6,941.1,1249.2,942.6,1265.1"/>
<path class="st5" d="M1022.2,1283.1c0.5,24.6-18.1,34.7-35.4,19.3c-23.2-20.7-23.7-64.6-0.7-66.1c1.6-0.1,3.7,0.2,5.3,0.4
	C1012.1,1242.7,1021.9,1267.4,1022.2,1283.1"/>
<path class="st5" d="M1123.8,1304.4c-2.1,28.9-34.5,34.7-54.9,9.8c-21.1-25.7-11.2-59.9,16.5-57.2c1,0.1,2.4,0.4,3.4,0.5
	C1114.8,1264.3,1125,1289,1123.8,1304.4"/>
<path class="st3" d="M1245.2,1328.5c-5.6,30.9-52.3,32.2-71.5,2c-14.3-22.5-4.5-54.8,33.6-49.1
	C1238,1288.9,1248,1313.4,1245.2,1328.5"/>
<path class="st3" d="M1374.9,1353.1c-8.6,30.7-57.3,31.9-75.5,1.8c-14.8-24.4,3.5-53.4,40.2-48.1
	C1370.9,1314.1,1379.1,1338.3,1374.9,1353.1"/>
<path class="st3" d="M1502.9,1376.3c-12.2,32.3-64.1,31.8-77-0.7c-9.3-23.4,11.3-49.1,46-44.4
	C1502.5,1338.1,1508.5,1361.8,1502.9,1376.3"/>
<path class="st1" d="M1624.7,1397.5c-14,29.9-61.1,32.1-72.9,3.4c-9.6-23.2,13.4-51.5,47.5-47.3
	C1628.1,1360,1631.5,1383.1,1624.7,1397.5"/>
<path class="st1" d="M1735.5,1415.7c-16.2,29.5-59.8,32.7-67.5,5c-6.3-22.5,18-50.7,49-47.3
	C1742.7,1378.9,1743.3,1401.5,1735.5,1415.7"/>
<path class="st4" d="M1830.8,1430.2c-16.9,27.7-53.2,33.7-58.8,9.7c-5.1-21.6,20.3-52.9,48.2-50.4
	C1841.8,1394.1,1839.4,1416.1,1830.8,1430.2"/>
<path class="st4" d="M1905.8,1440.3c-16.2,25-43,34.4-47.7,16.7c-5.3-19.8,21.7-57,45.9-55.7
	C1920.4,1404.9,1914.9,1426.3,1905.8,1440.3"/>
<path class="st4" d="M1924.8,1472.4c-15-3.2,9.3-47.6,29.7-60.9c5-3.3,7.7-3.4,9.2-3.4C1951.9,1430.5,1938.9,1452,1924.8,1472.4"/>
<path class="st5" d="M893,1331c4.9,14.7,8.4,29.8,5.2,28.7c-6.9-2.4-31-69-25.6-70.6c0.2,0,0.4,0,0.6,0.1
	C878.3,1292.4,887.9,1315.6,893,1331"/>
<path class="st5" d="M932.4,1342c5.1,18.6,2.9,30.3-5.1,26.5c-16.5-7.9-36.5-65.5-24-69.3c0.8-0.2,1.9-0.1,2.6,0
	C917.2,1303.5,928.2,1326.8,932.4,1342"/>
<path class="st5" d="M995.3,1356.9c4,20.8-5.2,31.5-19.1,22.5c-22.9-14.7-35.5-60.3-18.3-65.9c2.1-0.7,4.3-0.4,6-0.1
	C980.9,1318.7,992.5,1342,995.3,1356.9"/>
<path class="st5" d="M1079.9,1375.3c2,24.5-18.2,32.5-37.9,15c-24-21.3-25.8-58.4-2.7-59.4c1.7-0.1,4,0.3,5.6,0.5
	C1067.1,1337.5,1078.7,1360.7,1079.9,1375.3"/>
<path class="st3" d="M1184,1396.5c-1.3,26.1-33.7,31-55,8.2c-21.2-22.7-15.1-52.8,10.9-52.9c2.1,0,4.9,0.4,6.9,0.7
	C1173.7,1359.3,1184.7,1382.3,1184,1396.5"/>
<path class="st3" d="M1302.9,1419.5c-5.6,28.5-49.1,29.4-68.5,1.5c-15.8-22.9-1.7-49.9,32.5-44.8
	C1296.2,1383.1,1305.6,1405.7,1302.9,1419.5"/>
<path class="st3" d="M1423.3,1441.9c-9.9,28.9-58.3,28.1-71.9-1.2c-10.1-21.8,7.8-45.6,40.7-40.9
	C1421.3,1406.4,1427.9,1428.4,1423.3,1441.9"/>
<path class="st1" d="M1540.1,1462.6c-13.7,28.3-61.4,28-70.9-0.5c-7-21.1,13.9-44.5,45.7-40.3
	C1542.9,1428.1,1546.5,1449.4,1540.1,1462.6"/>
<path class="st1" d="M1648.8,1481c-16.6,26.8-58.9,29-66.6,3.4c-6.3-21,17-46.4,48.5-42.7C1656.5,1447.4,1656.8,1468.1,1648.8,1481"
	/>
<path class="st4" d="M1745.2,1496.3c-19.4,26.4-58,29.6-60.8,5c-2.2-20.2,22.9-45.4,50.8-42.6
	C1757.7,1463.5,1754.6,1483.6,1745.2,1496.3"/>
<path class="st4" d="M1825,1507.9c-19.4,23.6-49.7,30.3-52.2,11.6c-2.6-19.3,26-49.4,51.1-47.4
	C1841.8,1475.8,1835.3,1495.3,1825,1507.9"/>
<path class="st4" d="M1883.7,1515c-18.4,21.1-40.9,30.4-42.3,17.5c-1.6-15.9,30.8-52.1,50.6-51.6
	C1904.6,1483.5,1894.7,1502.4,1883.7,1515"/>
<path class="st5" d="M918.7,1407.4c13,24.5,13.9,26.4,14.3,27.5c-0.2-0.2-0.5-0.6-0.6-0.9c-10.7-19-24.7-44.5-34.2-64.1
	c-0.1-0.3-0.3-0.7-0.4-1c0,0,0,0,0,0C899.4,1371.1,908.8,1388.7,918.7,1407.4"/>
<path class="st5" d="M942.2,1415.3c6.7,13.9,10.9,27.3,6.2,25.9c-11-3.1-41.8-60.5-35.1-65.3c0.4-0.3,1.1-0.2,1.5-0.1
	C922.7,1379.4,935.8,1402,942.2,1415.3"/>
<path class="st5" d="M988.2,1427c5.9,14.9,6,27.8-3.9,23.8c-19-7.8-44.1-57-32.4-63.5c1.3-0.7,2.9-0.5,4.2-0.3
	C969,1391.3,982.7,1413,988.2,1427"/>
<path class="st5" d="M1054.8,1442.1c5.3,19.1-3.1,28.4-18,19.9c-24.6-13.9-40.8-55.6-23.5-60.3c2.2-0.6,4.5-0.2,6.3,0
	C1037.5,1406.9,1050.9,1428.4,1054.8,1442.1"/>
<path class="st3" d="M1139.9,1460c2.8,21.7-16.7,28.7-36.7,13c-23.5-18.4-28.4-50.5-8.2-53.6c3-0.5,5.9,0,8.2,0.3
	C1125.7,1425.5,1138.2,1446.7,1139.9,1460"/>
<path class="st3" d="M1241.8,1480.2c-1.4,24.5-35.1,27.1-55.5,4.3c-18.7-20.9-12.2-45.2,12-45c2.1,0,4.8,0.4,6.9,0.7
	C1231.6,1446.6,1242.5,1467.5,1241.8,1480.2"/>
<path class="st3" d="M1351,1500.9c-6.7,26.7-48.7,25.9-64.1-1.3c-11.4-20,2.3-41.8,32.4-37.4
	C1346.3,1468.5,1354.1,1488.6,1351,1500.9"/>
<path class="st3" d="M1458.9,1520.5c-11.4,25.3-54.5,24.6-64.9-1c-7.8-19.3,10-40.3,39.7-36.3
	C1460,1489.2,1464.3,1508.6,1458.9,1520.5"/>
<path class="st1" d="M1561.6,1538.4c-16,24.6-58.1,24.5-63.4-0.2c-4-18.5,17.4-39,45.6-35.5
	C1568.6,1508.1,1569.1,1526.8,1561.6,1538.4"/>
<path class="st4" d="M1655.2,1553.8c-19,22.7-56.7,24.8-59.3,3.3c-2.2-18.2,22.5-40.4,49.8-37.3
	C1667.9,1524.5,1664.6,1542.5,1655.2,1553.8"/>
<path class="st4" d="M1735.8,1566.1c-21.1,21.3-53.7,25.5-53.6,6.9c0.1-15.8,26.8-41.7,52.9-39.2
	C1753.8,1537.8,1746.7,1555.1,1735.8,1566.1"/>
<path class="st4" d="M1799.4,1574.7c-21,18.9-46.9,25.8-46.4,12.4c0.6-14.1,32.8-44.3,55-42.9
	C1822.1,1547.2,1811.5,1563.8,1799.4,1574.7"/>
<path class="st4" d="M1807.5,1599.4c-7.6,0.1-1-10.3,8.3-20.1c11.2-11.7,33-29,44.4-29.2l0.8,0.2
	C1844.1,1567.8,1826.2,1584.2,1807.5,1599.4"/>
<path class="st5" d="M974,1484.8c6.6,9.3,14.7,21.1,15.3,24c-0.1,0.1-0.3,0.2-0.4,0.2c-8.2-4.7-45.9-56.3-44-60c0.1,0,0.3,0,0.4,0
	C950.9,1452.4,971.7,1481.5,974,1484.8"/>
<path class="st5" d="M1005.1,1493.5c7.6,12,13.1,24.2,7.2,22.7c-13.4-3.4-50.6-55.2-42.3-58.9c0.5-0.2,1.4-0.1,1.9,0
	C981.7,1460.9,997.2,1480.9,1005.1,1493.5"/>
<path class="st5" d="M1055,1505.3c6.7,12.9,8,24.5-2.8,20.6c-20.5-7.4-49.5-51.5-37.4-56.9c1.4-0.6,3.1-0.4,4.5-0.1
	C1033.9,1473.3,1048.9,1493.6,1055,1505.3"/>
<path class="st5" d="M1122,1519.8c5.2,14.7-0.4,25.3-16.7,17c-23.9-12.1-42.1-46.7-27.8-52.9c2.7-1.2,5.3-0.8,8-0.4
	C1103.5,1488.5,1117.7,1507.7,1122,1519.8"/>
<path class="st3" d="M1204.4,1536.6c2.5,17.3-13.9,25.6-34.8,10.7c-23.6-16.8-28.9-44.4-9-46.9c2.9-0.4,5.8,0.1,8.1,0.4
	C1190.5,1506.3,1202.7,1525,1204.4,1536.6"/>
<path class="st3" d="M1298.5,1554.8c-2.3,22.1-34.7,22.8-52.4,1.2c-15.8-19.2-6.4-38.9,17.3-36.4c1,0.1,2.3,0.3,3.2,0.5
	C1290.5,1525.7,1299.6,1543.8,1298.5,1554.8"/>
<path class="st3" d="M1393.8,1572.5c-8.4,22.4-44.8,21.7-56.5-1.1c-8.8-17.2,4.9-35.8,31.4-32.1
	C1391.2,1544.4,1398.4,1560.2,1393.8,1572.5"/>
<path class="st1" d="M1486.2,1588.9c-14.6,22.4-53.6,20.4-57.2-3c-2.4-15.7,14.9-31.9,39.9-28.6
	C1491.8,1562.4,1492.8,1578.9,1486.2,1588.9"/>
<path class="st1" d="M1572.3,1603.5c-18.9,20.3-54.7,20.3-54.8,0c-0.1-15.7,21.6-32.9,46-29.9
	C1584.5,1578.1,1581.3,1593.8,1572.3,1603.5"/>
<path class="st4" d="M1648.6,1615.6c-19.6,16.6-51.9,22.1-51.3,4.9c0.5-13.7,26.6-35.7,51.6-33.1
	C1667,1591.4,1659.7,1606.3,1648.6,1615.6"/>
<path class="st4" d="M1711.8,1624.8c-19.9,14.3-48,21.7-46.9,9.3c1.1-12.5,33.7-37.6,56.3-35.8
	C1735.7,1601.4,1724.4,1615.7,1711.8,1624.8"/>
<path class="st4" d="M1758.3,1630.4c-20.6,13.5-42.7,20.5-41.4,13.1c1.6-9.4,42-38.6,60-38
	C1785.9,1607.5,1774.2,1619.9,1758.3,1630.4"/>
<path class="st5" d="M1022.8,1548.2c13.8,14,22.3,21.7,22.4,21.8c-14.8-14.4-34.4-33.6-48.3-48.8l-3.8-4.4
	C993.1,1516.9,1006.9,1532.1,1022.8,1548.2"/>
<path class="st5" d="M1039.9,1553.9c16.6,17.9,16.9,19.9,17,20.6c-0.1,0.1-0.1,0.1-0.2,0.2c-7.7-1-52.3-46.2-51.8-52.6
	c0.2-0.2,0.6-0.2,0.9-0.1C1012.7,1525.1,1033.6,1547.2,1039.9,1553.9"/>
<path class="st5" d="M1073.3,1562.4c7.4,9,14.5,19.5,10.1,19.5c-11.9,0-55.1-44.9-49.1-51.1c0.6-0.6,1.7-0.5,2.7-0.3
	C1047.8,1534,1065.5,1552.9,1073.3,1562.4"/>
<path class="st5" d="M1121.8,1573.4c6.5,9.9,9.6,19.6,1,17.8c-17.5-3.8-51.4-42.2-43.1-48.9c1.4-1.2,3.3-0.9,5.3-0.6
	C1099.2,1545.7,1114.8,1562.9,1121.8,1573.4"/>
<path class="st3" d="M1183.9,1586.5c4.9,11.3,1.8,20.2-11.8,14.9c-22.9-8.8-44.4-40.6-31.1-45.9c2.5-1,4.9-0.6,7.4-0.2
	C1166.4,1559.9,1179.7,1576.9,1183.9,1586.5"/>
<path class="st3" d="M1258.3,1601.3c2.1,15-13.8,21.1-33.1,6.9c-20.1-14.8-23.8-35.9-6.7-37.7c2.7-0.3,5.3,0.1,7.4,0.4
	C1245.9,1575.7,1256.9,1591.6,1258.3,1601.3"/>
<path class="st3" d="M1338.1,1616.4c-3.7,18.9-32.4,18.3-45.8-1c-10.4-15-2.3-31.1,20.4-27.8
	C1332,1592.1,1340.2,1605.8,1338.1,1616.4"/>
<path class="st1" d="M1417.1,1630.8c-10.7,18.6-42.7,16.7-48.2-2.8c-3.8-13.5,9.1-27.3,30.9-24.3
	C1419.8,1608.2,1422,1622.2,1417.1,1630.8"/>
<path class="st1" d="M1492.2,1643.8c-15,15.4-46.4,17.6-47.6-0.6c-0.8-13.2,17.4-27.5,39-24.8
	C1500.8,1622.2,1501.5,1634.3,1492.2,1643.8"/>
<path class="st4" d="M1560.8,1655.1c-18.9,13.8-49.2,17-46.2,1.7c2.2-11.3,24.9-27.8,46.7-25.3
	C1576.5,1634.8,1572.9,1646.3,1560.8,1655.1"/>
<path class="st4" d="M1619.9,1664.2c-20.5,11.8-48.3,16.7-44.4,5.2c3.6-10.6,34.1-29.1,54.1-27.2c12.3,2.6,5.6,12.4-6.9,20.3
	C1621.8,1663,1620.7,1663.7,1619.9,1664.2"/>
<path class="st4" d="M1666.6,1670.5c-18.9,9.3-43.7,15.7-42.2,9.2c1.8-7.8,42.8-30.8,60.8-29.6c10.3,2.2-5.3,12.7-7.1,13.9
	C1674.8,1666.2,1670.9,1668.4,1666.6,1670.5"/>
<path class="st4" d="M1661.8,1686.1c-1.4,0-1.6,0-2.1-0.4c-0.1-4.5,51.9-31,65.5-31c0.3,0.1,0.7,0.1,0.9,0.2
	C1705.3,1666.7,1683.8,1677.1,1661.8,1686.1"/>
<path class="st5" d="M1094.7,1608.2c7.9,6,16.1,11.5,23.7,17.9c-3.8-0.1-52.6-37-59.3-44.8c0-0.1,0.1-0.2,0.1-0.2
	C1059.5,1581.3,1059.5,1581.3,1094.7,1608.2"/>
<path class="st5" d="M1114.9,1613.9c18.2,14.9,18.5,16.2,18.6,16.8c-6.9,0.7-58.2-38.7-57.1-43.9c0.3-0.1,0.7-0.1,1.1-0.1
	C1082.6,1588.6,1095.2,1597.7,1114.9,1613.9"/>
<path class="st5" d="M1147.3,1621.6c3.9,3.7,16.4,15.7,11.9,15.6c-11.4-0.2-56.8-37.3-51.7-42.2c0.5-0.5,1.7-0.3,2.6-0.2
	C1122.5,1598.5,1144.8,1619.2,1147.3,1621.6"/>
<path class="st5" d="M1191,1631.1c5.7,6.8,10.2,14.6,4.3,14.1c-12.1-0.9-52.7-33.4-44.3-39.9c1.2-0.9,2.9-0.7,4.7-0.4
	C1169.5,1608.6,1184.8,1623.6,1191,1631.1"/>
<path class="st3" d="M1244.8,1642c4.4,8.7,2.7,15.6-9,11.4c-18.4-6.6-41.2-32.1-29.1-36.4c2.1-0.8,4.3-0.4,6.6-0.1
	C1228.9,1620.7,1240.9,1634.3,1244.8,1642"/>
<path class="st3" d="M1306.3,1653.9c1,12.6-14.1,16.1-30.3,2.4c-13.9-11.7-14.6-25.4-1.3-26.6c2.3-0.2,4.5,0.1,6.3,0.4
	C1298.3,1634.3,1305.7,1646.9,1306.3,1653.9"/>
<path class="st3" d="M1368.6,1665.5c-6.5,15.3-31.7,12.7-37.9-3.9c-3.9-10.5,4.2-20.5,21-18.1
	C1368.3,1647.3,1371.6,1658.6,1368.6,1665.5"/>
<path class="st1" d="M1429.1,1676.3c-12.1,12-37.6,12.7-38-2.2c-0.2-10,13.2-20.3,30.2-18C1435.5,1659.2,1436.4,1669,1429.1,1676.3"
	/>
<path class="st1" d="M1485.5,1685.8c-14.9,9-41.4,12.7-38.3,0.6c2.3-9,21.4-21.4,39.7-19.1
	C1500.1,1670.2,1496.4,1679.1,1485.5,1685.8"/>
<path class="st4" d="M1535.5,1693.8c-17.6,7.7-41.8,11.1-39.3,3.9c2.4-7.1,31.1-22.7,49.9-20.7c12.2,2.6,0.2,10.9-1.2,11.9
	C1542.3,1690.5,1539.2,1692.2,1535.5,1693.8"/>
<path class="st4" d="M1576.9,1699.8c-18.1,6.3-42.1,10.3-39.7,5.6c2.7-5.2,42.3-22.3,59.1-20.9c5.9,1.3,2.3,4.6-1.7,7.3
	C1592.7,1693,1587.3,1696.2,1576.9,1699.8"/>
<path class="st4" d="M1607.4,1703.5c-15.7,4.7-36.7,9.1-38.9,7.4c2.2-4,54.6-21.9,66.5-21.4c1,0.2,3.3,0.7-1.4,3.6
	C1631.8,1694.2,1624.6,1698.3,1607.4,1703.5"/>
<path class="st5" d="M1164.5,1654.3c1.1,0.6,3.3,1.8,6.8,3.6l-28.1-15.7l-10.4-6.3C1139.9,1640.3,1151.1,1647,1164.5,1654.3"/>
<path class="st5" d="M1174,1657.4c8.5,4.7,17.2,8.9,25.6,13.8c-4.9-0.4-57.4-28.6-64.6-35.5c0.1,0,0.1-0.1,0.2-0.1
	c2.1,0.8,6.2,3.2,17.4,9.6C1158.2,1648.4,1165.8,1652.9,1174,1657.4"/>
<path class="st5" d="M1192.5,1662.1c20.1,12,20.1,12,20.7,12.7c-4.8,0.5-55.6-26.9-59.9-33.8c0.1-0.1,0.2-0.3,0.3-0.4
	c0.2,0,0.4,0.1,0.6,0.1C1159.4,1642.3,1169.1,1648.1,1192.5,1662.1"/>
<path class="st5" d="M1219.1,1668.1c13.9,9.6,14.4,10.7,14.7,11.2c-1.8,0.9-18.3-6.8-32.1-15.1c-11.5-6.9-20.5-14-20.4-16.3
	c0-0.8,1-0.7,2.2-0.5C1185.8,1648.1,1193,1650.1,1219.1,1668.1"/>
<path class="st5" d="M1253.2,1675.3c3.2,2.9,10.3,9.6,7.3,10c-3,0.4-17.5-6.3-29.3-14.6c-9.7-6.7-15.1-12.9-13-14.8
	c0.8-0.7,2.3-0.5,3.7-0.3C1234.8,1659,1251.3,1673.6,1253.2,1675.3"/>
<path class="st3" d="M1293.9,1683.4c2.4,4,4.3,10.2-4,8c-13.7-3.7-34.4-21.6-27.4-25.8c1.7-1.1,4.5-0.6,6-0.4
	C1280.8,1668,1290.4,1677.6,1293.9,1683.4"/>
<path class="st3" d="M1337.5,1691.6c-0.8,10.1-14.8,9.2-24.5-1.6c-7.2-8-4.9-15.4,4.6-15.2c1,0,2.3,0.2,3.3,0.3
	C1332.3,1677.8,1337.9,1685.6,1337.5,1691.6"/>
<path class="st1" d="M1380.5,1699.5c-8.4,8.7-26.6,7.8-26.7-3.7c-0.1-5.7,6.6-12.7,19.3-10.9
	C1384.1,1687.2,1385.5,1694.3,1380.5,1699.5"/>
<path class="st1" d="M1421.4,1706.6c-10.5,5-30.7,7.8-28-0.1c1.9-5.6,15.5-14.7,30.1-12.8c9.1,2,7.4,7.2,1.1,11.2
	C1423.7,1705.4,1422.4,1706.1,1421.4,1706.6"/>
<path class="st1" d="M1458.7,1712.7c-13.8,4-33.5,5.8-31.6,2c1.8-3.5,27-15.1,42.9-13.2c7.6,1.6,2.1,5.4,0.3,6.6
	C1468.5,1709.2,1465,1710.9,1458.7,1712.7"/>
<path class="st4" d="M1490.8,1717.6c-14,2.8-31.8,4.3-34.7,3c0-0.1,0-0.3,0-0.5c2.8-2.3,41-13.6,54.8-12.2c1.2,0.3,4,0.9,0.9,3
	C1510.7,1711.7,1505.7,1714.6,1490.8,1717.6"/>
<path class="st4" d="M1516.1,1721c-15.6,2.4-33.4,3.7-36.5,3c2.6-2.5,56.4-12.1,64.7-11.5c0.4,0.1,0.8,0.2,1.1,0.4
	C1544.3,1715.9,1525.8,1719.5,1516.1,1721"/>
<path class="st4" d="M1496.5,1726c-0.1,0-0.3,0-0.4-0.1c0.4-0.1,66.5-10.7,71.9-10.7l0.1,0C1544.6,1720.4,1520.7,1724,1496.5,1726"
	/>
<path class="st5" d="M1231,1685.2l-22.6-9.4l-0.1,0c16.1,6.8,18.1,7.7,28.8,11.8L1231,1685.2"/>
<path class="st5" d="M1256.4,1694c1.7,0.6,3.6,1.3,6.7,2.4c-4.9-1.6-11.3-3.7-16.2-5.4c-22.3-8.3-30.2-12.6-30.3-12.6
	c0,0,0-0.1,0.1-0.1C1230.2,1682.7,1243,1689.1,1256.4,1694"/>
<path class="st5" d="M1268.4,1696.9c9.2,3.6,15.8,5.8,18.6,6.7c-3.6-1.1-8.5-2.5-12.1-3.5c-29-9.6-42.9-17-43.8-18
	c0.2,0,0.4,0,0.5,0C1244.5,1685.6,1256.1,1692.1,1268.4,1696.9"/>
<path class="st5" d="M1284.7,1700.4c5.6,2.5,11.5,4.4,17.1,7c-7.8-1.2-47.6-16-50.1-20.6c0.3-0.1,0.8-0.1,1.1-0.1
	C1254.3,1687.1,1254.3,1687.1,1284.7,1700.4"/>
<path class="st2" d="M1304.7,1704.5c3.3,1.8,6.9,3,9.8,5.5c-6.6,0.4-38.6-14.7-37.2-17.5c0.2-0.5,1.2-0.3,2.1-0.2
	C1285.7,1693.8,1293.2,1698,1304.7,1704.5"/>
<path class="st3" d="M1327.7,1709c3.7,4.2,2.1,4.1,1.5,4c-6.7-0.7-26.1-11.4-22-14.3c0.9-0.6,2.7-0.4,3.7-0.2
	C1318,1700.1,1324.2,1705,1327.7,1709"/>
<path class="st3" d="M1351.1,1713.3c-4.1,5.9-14.4,0.7-15.3-4.5c-0.4-2.2,1.5-5,8.1-4.1C1350.7,1706.2,1353.1,1710.4,1351.1,1713.3"
	/>
<path class="st1" d="M1373.8,1717.3c-2.2,0.6-17.7,3.3-15.6-0.6c1.5-2.8,9.1-7.5,18.1-6.2c5.6,1.2,4.1,3.6,2.3,4.8
	C1378.1,1715.7,1376.6,1716.6,1373.8,1717.3"/>
<path class="st1" d="M1394.9,1720.9c-9.7,0.9-20.5,0.4-21.7-0.1c0.3-0.6,24-6.3,33.7-5.1c0.9,0.2,3.3,0.7,1.6,2
	C1407.2,1718.8,1402.9,1720.2,1394.9,1720.9"/>
<path class="st1" d="M1413.7,1723.9c-13.6,0.4-26-0.6-27.3-0.9c0.3-0.1,41-3.6,48.1-2.8c0.9,0.2,1.1,0.2,1.3,0.5
	C1435.1,1722.2,1425.4,1723.6,1413.7,1723.9"/>
<path class="st1" d="M1429.3,1726.2c-16.1,0-29.8-1.2-31.6-1.4c0.9-0.1,54.9-1.1,55.4-1.1c3,0,4,0.1,4.9,0.1c0.2,0,0.4,0.1,0.5,0.1
	C1457.2,1725.5,1440.3,1726.2,1429.3,1726.2"/>
<path class="st1" d="M1440.9,1727.6c-19.3-0.3-34.5-1.7-34.7-1.7c24.3,1,24.3,1,34.9,0.9c11.7-0.1,23.4-1.4,35.1-0.6
	C1473.3,1727.3,1455.3,1727.8,1440.9,1727.6"/>
<path class="st3" d="M1316.3,1711.5c-0.8-0.2-0.9-0.3-0.9-0.3c0.1,0,0.1,0,0.2,0c2.5,0.6,5,1.3,7.5,2L1316.3,1711.5"/>
<path class="st3" d="M1338.9,1716.6c-2-0.4-4.6-1-6.6-1.4c-2.9-0.7-5.4-1.4-6.2-1.8c0.1-0.1,0.3,0,0.4,0c4.4,1,8.6,2.5,12.9,3.4
	L1338.9,1716.6"/>
<path class="st3" d="M1342.4,1717.3l-1-0.2c-1.7-0.3-3.6-0.9-3.9-1.4c0.1-0.1,0.3-0.2,1,0c1.4,0.3,2.3,0.6,4,1.4
	c0.7,0.3,1.3,0.5,1.8,0.6C1343.9,1717.6,1343.1,1717.4,1342.4,1717.3"/>
<path class="st3" d="M1348.9,1718.5c-0.8-0.1-1.8-0.3-2.6-0.5c0.2,0,0.2,0,0.7-0.1c1.8-0.2,2.9-0.1,3.8,0c0.7,0.2,1.1,0.3,1.2,0.5
	c-0.4,0.4-2.4,0.1-2.8,0.1L1348.9,1718.5"/>
<path class="st2" d="M1352.3,1719.1l-1.1-0.2c3.8,0.7,7.6,0.6,11.4,1.1c0.1,0,0.3,0.1,0.4,0.1c-0.2,0.1-2.3,0.3-8.7-0.7
	C1353.7,1719.3,1352.9,1719.2,1352.3,1719.1"/>
<path class="st1" d="M1360.1,1720.4c-1.1-0.2-2.6-0.4-3.7-0.6c5.6,0.9,11.3,1.3,16.9,2c0.1,0,0.2,0,0.2,0
	C1372.9,1722,1367.6,1721.6,1360.1,1720.4L1360.1,1720.4"/>
<path class="st1" d="M1365.4,1721.2l-2.1-0.3c6.5,1,13,1.6,19.5,2.4c0,0,0.1,0,0.1,0c0,0-4.1-0.2-14.3-1.7L1365.4,1721.2"/>
<path class="st1" d="M1374.1,1722.4c1.8,0.2,1.8,0.2,16.5,2c-0.1,0-1.5-0.1-8.6-0.9C1379.7,1723.2,1376.5,1722.8,1374.1,1722.4"/>
<circle class="st4" cx="1992.4" cy="1683.1" r="43.7"/>
<g>
	<g>
		<path class="st4" d="M2163,1633.3c0.7,47.6,30.9,67.2,66.2,67.2c25.2,0,40.6-4.5,53.6-9.9l6.2,25c-12.3,5.6-33.8,12.3-64.5,12.3
			c-59.4,0-95.2-39.6-95.2-97.6c0-58.6,34.5-104.4,91-104.4c63.1,0,79.6,55.4,79.6,91c0,7.4-0.4,12.7-1.2,16.5H2163z M2266,1608
			c0.3-22.2-9.1-57-48.5-57c-35.9,0-51.2,32.5-54,57H2266z"/>
		<path class="st4" d="M2338.8,1687.8c10.6,6.6,29.1,13.8,46.6,13.8c25.7,0,37.6-12.6,37.6-28.8c0-16.9-10.2-25.8-35.9-35.4
			c-34.9-12.7-51.5-31.7-51.4-54.9c0-31.2,25.3-56.7,66.9-56.7c19.7,0,36.6,5.3,47.4,11.9l-8.7,25.6c-7.4-4.7-21.6-11.4-39.7-11.4
			c-20.8,0-32,12-32,26.6c0,16,11.4,23.2,36.7,33c33.3,12.4,50.7,29.2,50.8,58.1c0,34.3-26.6,58.3-72.3,58.3
			c-21.2,0-40.8-5.5-54.4-13.5L2338.8,1687.8z"/>
	</g>
</g>
</svg>
